<svg width="28" height="28" viewBox="0 0 28 28" fill="none" xmlns="http://www.w3.org/2000/svg">
<g clip-path="url(#clip0_1_236)">
<path d="M24.9375 3.67506C24.6366 3.48043 24.2926 3.36268 23.9356 3.33217C23.5786 3.30165 23.2195 3.35931 22.89 3.50006L12.0925 7.75256C11.8369 7.8566 11.5635 7.91008 11.2875 7.91006H4.375C3.79484 7.91006 3.23844 8.14053 2.8282 8.55076C2.41797 8.961 2.1875 9.5174 2.1875 10.0976V10.2726H0V15.5226H2.1875V15.7501C2.20121 16.3211 2.43771 16.8641 2.84647 17.263C3.25523 17.662 3.80382 17.8852 4.375 17.8851L7 23.4501C7.17775 23.8248 7.45759 24.1418 7.80738 24.3647C8.15718 24.5876 8.56274 24.7073 8.9775 24.7101H10.08C10.6571 24.7054 11.209 24.4729 11.6155 24.0632C12.022 23.6535 12.25 23.0997 12.25 22.5226V18.0951L22.89 22.3476C23.1517 22.4517 23.4308 22.5052 23.7125 22.5051C24.1495 22.498 24.575 22.3643 24.9375 22.1201C25.2253 21.9257 25.4628 21.6656 25.6301 21.3613C25.7975 21.057 25.89 20.7172 25.9 20.3701V5.47756C25.8984 5.12146 25.8099 4.77114 25.6421 4.45702C25.4744 4.1429 25.2325 3.87447 24.9375 3.67506ZM10.0625 10.0976V15.7501H4.375V10.0976H10.0625ZM10.0625 22.5226H8.96L6.8075 17.8851H10.0625V22.5226ZM12.8975 16.0126C12.6897 15.9064 12.4731 15.8185 12.25 15.7501V9.97506C12.4709 9.92948 12.6875 9.86508 12.8975 9.78256L23.7125 5.47756V20.3176L12.8975 16.0126ZM25.9525 10.7101V15.0851C26.5327 15.0851 27.0891 14.8546 27.4993 14.4444C27.9095 14.0341 28.14 13.4777 28.14 12.8976C28.14 12.3174 27.9095 11.761 27.4993 11.3508C27.0891 10.9405 26.5327 10.7101 25.9525 10.7101Z" fill="#7165FF"/>
</g>
<defs>
<clipPath id="clip0_1_236">
<rect width="28" height="28" fill="white"/>
</clipPath>
</defs>
</svg>
