<svg width="56" height="57" viewBox="0 0 56 57" fill="none" xmlns="http://www.w3.org/2000/svg">
<circle cx="28" cy="28.5596" r="28" fill="#E9E8FF"/>
<g clip-path="url(#clip0_4_12773)">
<path d="M38.9375 18.2346C38.6366 18.04 38.2926 17.9223 37.9356 17.8917C37.5786 17.8612 37.2195 17.9189 36.89 18.0596L26.0925 22.3121C25.8369 22.4162 25.5635 22.4697 25.2875 22.4696H18.375C17.7948 22.4696 17.2384 22.7001 16.8282 23.1103C16.418 23.5206 16.1875 24.077 16.1875 24.6571V24.8321H14V30.0821H16.1875V30.3096C16.2012 30.8806 16.4377 31.4236 16.8465 31.8226C17.2552 32.2215 17.8038 32.4448 18.375 32.4446L21 38.0096C21.1777 38.3844 21.4576 38.7014 21.8074 38.9243C22.1572 39.1472 22.5627 39.2669 22.9775 39.2696H24.08C24.6571 39.265 25.209 39.0325 25.6155 38.6228C26.022 38.213 26.25 37.6593 26.25 37.0821V32.6546L36.89 36.9071C37.1517 37.0113 37.4308 37.0647 37.7125 37.0646C38.1495 37.0576 38.575 36.9238 38.9375 36.6796C39.2253 36.4853 39.4628 36.2252 39.6301 35.9209C39.7975 35.6166 39.89 35.2768 39.9 34.9296V20.0371C39.8984 19.681 39.8099 19.3307 39.6421 19.0166C39.4744 18.7025 39.2325 18.434 38.9375 18.2346ZM24.0625 24.6571V30.3096H18.375V24.6571H24.0625ZM24.0625 37.0821H22.96L20.8075 32.4446H24.0625V37.0821ZM26.8975 30.5721C26.6897 30.4659 26.4731 30.3781 26.25 30.3096V24.5346C26.4709 24.489 26.6875 24.4246 26.8975 24.3421L37.7125 20.0371V34.8771L26.8975 30.5721ZM39.9525 25.2696V29.6446C40.5327 29.6446 41.0891 29.4142 41.4993 29.0039C41.9095 28.5937 42.14 28.0373 42.14 27.4571C42.14 26.877 41.9095 26.3206 41.4993 25.9103C41.0891 25.5001 40.5327 25.2696 39.9525 25.2696Z" fill="#7165FF"/>
</g>
<defs>
<clipPath id="clip0_4_12773">
<rect width="28" height="28" fill="white" transform="translate(14 14.5596)"/>
</clipPath>
</defs>
</svg>
