<svg width="28" height="28" viewBox="0 0 28 28" fill="none" xmlns="http://www.w3.org/2000/svg">
<path d="M23.3333 16.3337C24.622 16.3337 25.6667 15.289 25.6667 14.0003C25.6667 12.7117 24.622 11.667 23.3333 11.667C22.0447 11.667 21 12.7117 21 14.0003C21 15.289 22.0447 16.3337 23.3333 16.3337Z" stroke="#7165FF" stroke-width="1.5" stroke-linecap="round" stroke-linejoin="round"/>
<path d="M23.3333 6.99967C24.622 6.99967 25.6667 5.95501 25.6667 4.66634C25.6667 3.37768 24.622 2.33301 23.3333 2.33301C22.0447 2.33301 21 3.37768 21 4.66634C21 5.95501 22.0447 6.99967 23.3333 6.99967Z" stroke="#7165FF" stroke-width="1.5" stroke-linecap="round" stroke-linejoin="round"/>
<path d="M23.3333 25.6667C24.622 25.6667 25.6667 24.622 25.6667 23.3333C25.6667 22.0447 24.622 21 23.3333 21C22.0447 21 21 22.0447 21 23.3333C21 24.622 22.0447 25.6667 23.3333 25.6667Z" stroke="#7165FF" stroke-width="1.5" stroke-linecap="round" stroke-linejoin="round"/>
<path d="M4.66683 16.3337C5.95549 16.3337 7.00016 15.289 7.00016 14.0003C7.00016 12.7117 5.95549 11.667 4.66683 11.667C3.37816 11.667 2.3335 12.7117 2.3335 14.0003C2.3335 15.289 3.37816 16.3337 4.66683 16.3337Z" stroke="#7165FF" stroke-width="1.5" stroke-linecap="round" stroke-linejoin="round"/>
<path d="M7 14H21" stroke="#7165FF" stroke-width="1.5" stroke-linecap="round" stroke-linejoin="round"/>
<path d="M21.0002 4.66699H16.3335C14.0002 4.66699 12.8335 5.83366 12.8335 8.16699V19.8337C12.8335 22.167 14.0002 23.3337 16.3335 23.3337H21.0002" stroke="#7165FF" stroke-width="1.5" stroke-linecap="round" stroke-linejoin="round"/>
</svg>
