<svg width="28" height="28" viewBox="0 0 28 28" fill="none" xmlns="http://www.w3.org/2000/svg">
<path d="M9.91717 22.1312H9.33383C4.66717 22.1312 2.33383 20.9645 2.33383 15.1312V9.29785C2.33383 4.63119 4.66717 2.29785 9.33383 2.29785H18.6672C23.3338 2.29785 25.6672 4.63119 25.6672 9.29785V15.1312C25.6672 19.7979 23.3338 22.1312 18.6672 22.1312H18.0838C17.7222 22.1312 17.3722 22.3062 17.1505 22.5979L15.4005 24.9312C14.6305 25.9579 13.3705 25.9579 12.6005 24.9312L10.8505 22.5979C10.6638 22.3412 10.2438 22.1312 9.91717 22.1312Z" stroke="#7165FF" stroke-width="1.5" stroke-miterlimit="10" stroke-linecap="round" stroke-linejoin="round"/>
<path d="M9.33333 10.1497L7 12.483L9.33333 14.8163" stroke="#7165FF" stroke-width="1.5" stroke-miterlimit="10" stroke-linecap="round" stroke-linejoin="round"/>
<path d="M18.6662 10.1497L20.9995 12.483L18.6662 14.8163" stroke="#7165FF" stroke-width="1.5" stroke-miterlimit="10" stroke-linecap="round" stroke-linejoin="round"/>
<path d="M15.1672 9.76465L12.8338 15.2014" stroke="#7165FF" stroke-width="1.5" stroke-miterlimit="10" stroke-linecap="round" stroke-linejoin="round"/>
</svg>
