<svg width="56" height="57" viewBox="0 0 56 57" fill="none" xmlns="http://www.w3.org/2000/svg">
<circle cx="28" cy="28.5596" r="28" fill="#E9E8FF"/>
<path d="M23.9173 36.6908H23.334C18.6673 36.6908 16.334 35.5241 16.334 29.6908V23.8574C16.334 19.1908 18.6673 16.8574 23.334 16.8574H32.6673C37.334 16.8574 39.6673 19.1908 39.6673 23.8574V29.6908C39.6673 34.3574 37.334 36.6908 32.6673 36.6908H32.084C31.7223 36.6908 31.3723 36.8658 31.1507 37.1575L29.4007 39.4908C28.6307 40.5175 27.3706 40.5175 26.6006 39.4908L24.8506 37.1575C24.664 36.9008 24.244 36.6908 23.9173 36.6908Z" stroke="#7165FF" stroke-width="1.5" stroke-miterlimit="10" stroke-linecap="round" stroke-linejoin="round"/>
<path d="M23.3333 24.709L21 27.0423L23.3333 29.3757" stroke="#7165FF" stroke-width="1.5" stroke-miterlimit="10" stroke-linecap="round" stroke-linejoin="round"/>
<path d="M32.666 24.709L34.9993 27.0423L32.666 29.3757" stroke="#7165FF" stroke-width="1.5" stroke-miterlimit="10" stroke-linecap="round" stroke-linejoin="round"/>
<path d="M29.1673 24.3242L26.834 29.7609" stroke="#7165FF" stroke-width="1.5" stroke-miterlimit="10" stroke-linecap="round" stroke-linejoin="round"/>
</svg>
