<svg width="56" height="57" viewBox="0 0 56 57" fill="none" xmlns="http://www.w3.org/2000/svg">
<circle cx="28" cy="28.5596" r="28" fill="#E9E8FF"/>
<path d="M27.9655 40.2259C34.4088 40.2259 39.6322 35.0026 39.6322 28.5592C39.6322 22.1159 34.4088 16.8926 27.9655 16.8926C21.5222 16.8926 16.2988 22.1159 16.2988 28.5592C16.2988 35.0026 21.5222 40.2259 27.9655 40.2259Z" stroke="#7165FF" stroke-width="1.5" stroke-linecap="round" stroke-linejoin="round"/>
<path d="M28 33.8096C30.8995 33.8096 33.25 31.4591 33.25 28.5596C33.25 25.6601 30.8995 23.3096 28 23.3096C25.1005 23.3096 22.75 25.6601 22.75 28.5596C22.75 31.4591 25.1005 33.8096 28 33.8096Z" stroke="#7165FF" stroke-width="1.5" stroke-linecap="round" stroke-linejoin="round"/>
<path d="M19.7168 20.3115L23.8468 24.4299" stroke="#7165FF" stroke-width="1.5" stroke-linecap="round" stroke-linejoin="round"/>
<path d="M19.7168 36.8078L23.8468 32.6895" stroke="#7165FF" stroke-width="1.5" stroke-linecap="round" stroke-linejoin="round"/>
<path d="M36.2247 36.8078L32.0947 32.6895" stroke="#7165FF" stroke-width="1.5" stroke-linecap="round" stroke-linejoin="round"/>
<path d="M36.2257 20.3115L32.0957 24.4299" stroke="#7165FF" stroke-width="1.5" stroke-linecap="round" stroke-linejoin="round"/>
</svg>
