<svg width="28" height="28" viewBox="0 0 28 28" fill="none" xmlns="http://www.w3.org/2000/svg">
<path d="M13.965 25.6663C20.4083 25.6663 25.6317 20.443 25.6317 13.9997C25.6317 7.55635 20.4083 2.33301 13.965 2.33301C7.52168 2.33301 2.29834 7.55635 2.29834 13.9997C2.29834 20.443 7.52168 25.6663 13.965 25.6663Z" stroke="#7165FF" stroke-width="1.5" stroke-linecap="round" stroke-linejoin="round"/>
<path d="M14 19.25C16.8995 19.25 19.25 16.8995 19.25 14C19.25 11.1005 16.8995 8.75 14 8.75C11.1005 8.75 8.75 11.1005 8.75 14C8.75 16.8995 11.1005 19.25 14 19.25Z" stroke="#7165FF" stroke-width="1.5" stroke-linecap="round" stroke-linejoin="round"/>
<path d="M5.7168 5.75195L9.8468 9.87029" stroke="#7165FF" stroke-width="1.5" stroke-linecap="round" stroke-linejoin="round"/>
<path d="M5.71667 22.2482L9.84667 18.1299" stroke="#7165FF" stroke-width="1.5" stroke-linecap="round" stroke-linejoin="round"/>
<path d="M22.225 22.2482L18.095 18.1299" stroke="#7165FF" stroke-width="1.5" stroke-linecap="round" stroke-linejoin="round"/>
<path d="M22.2252 5.75195L18.0952 9.87029" stroke="#7165FF" stroke-width="1.5" stroke-linecap="round" stroke-linejoin="round"/>
</svg>
