<svg width="28" height="28" viewBox="0 0 28 28" fill="none" xmlns="http://www.w3.org/2000/svg">
<path d="M22.75 19.25C22.1269 19.2532 21.5163 19.4246 20.9825 19.7461L17.6461 16.4089C18.1215 15.6954 18.3751 14.8573 18.3751 14C18.3751 13.1427 18.1215 12.3046 17.6461 11.5911L19.8748 9.3625C20.4385 9.63406 21.0802 9.69731 21.6861 9.54104C22.2921 9.38478 22.8232 9.01909 23.1853 8.50876C23.5474 7.99843 23.7172 7.37639 23.6647 6.75284C23.6121 6.12929 23.3405 5.54448 22.898 5.102C22.4555 4.65952 21.8707 4.38793 21.2472 4.33535C20.6236 4.28277 20.0016 4.45258 19.4912 4.81471C18.9809 5.17685 18.6152 5.70792 18.459 6.31386C18.3027 6.91979 18.3659 7.56148 18.6375 8.12525L16.4089 10.3539C15.6954 9.87852 14.8573 9.62488 14 9.62488C13.1427 9.62488 12.3046 9.87852 11.5911 10.3539L8.25388 7.01663C8.57521 6.48312 8.74661 5.87279 8.75 5.25C8.75 4.55777 8.54473 3.88108 8.16014 3.30551C7.77556 2.72993 7.22893 2.28133 6.58939 2.01642C5.94985 1.75152 5.24612 1.6822 4.56719 1.81725C3.88825 1.9523 3.26461 2.28564 2.77513 2.77513C2.28564 3.26461 1.9523 3.88825 1.81725 4.56719C1.6822 5.24612 1.75152 5.94985 2.01642 6.58939C2.28133 7.22894 2.72993 7.77556 3.30551 8.16015C3.88108 8.54473 4.55777 8.75 5.25 8.75C5.87309 8.74677 6.48374 8.57536 7.0175 8.25388L10.3539 11.5911C9.87852 12.3046 9.62487 13.1427 9.62487 14C9.62487 14.8573 9.87852 15.6954 10.3539 16.4089L7.01663 19.7461C6.48311 19.4248 5.87279 19.2534 5.25 19.25C4.55777 19.25 3.88108 19.4553 3.30551 19.8399C2.72993 20.2244 2.28133 20.7711 2.01642 21.4106C1.75152 22.0502 1.6822 22.7539 1.81725 23.4328C1.9523 24.1118 2.28564 24.7354 2.77513 25.2249C3.26461 25.7144 3.88825 26.0477 4.56719 26.1828C5.24612 26.3178 5.94985 26.2485 6.58939 25.9836C7.22893 25.7187 7.77556 25.2701 8.16014 24.6945C8.54473 24.1189 8.75 23.4422 8.75 22.75C8.74676 22.1269 8.57536 21.5163 8.25388 20.9825L11.5911 17.6461C12.0565 17.9563 12.5773 18.1738 13.125 18.2866V21.161C12.5412 21.3674 12.0491 21.7736 11.7358 22.3077C11.4225 22.8418 11.3081 23.4695 11.4128 24.0798C11.5175 24.6901 11.8346 25.2437 12.308 25.6428C12.7815 26.042 13.3808 26.2609 14 26.2609C14.6192 26.2609 15.2185 26.042 15.692 25.6428C16.1654 25.2437 16.4825 24.6901 16.5872 24.0798C16.6919 23.4695 16.5775 22.8418 16.2642 22.3077C15.9509 21.7736 15.4588 21.3674 14.875 21.161V18.2866C15.4227 18.1738 15.9435 17.9563 16.4089 17.6461L19.7461 20.9834C19.4248 21.5169 19.2534 22.1272 19.25 22.75C19.25 23.4422 19.4553 24.1189 19.8399 24.6945C20.2244 25.2701 20.7711 25.7187 21.4106 25.9836C22.0502 26.2485 22.7539 26.3178 23.4328 26.1828C24.1118 26.0477 24.7354 25.7144 25.2249 25.2249C25.7144 24.7354 26.0477 24.1118 26.1828 23.4328C26.3178 22.7539 26.2485 22.0502 25.9836 21.4106C25.7187 20.7711 25.2701 20.2244 24.6945 19.8399C24.1189 19.4553 23.4422 19.25 22.75 19.25ZM14 11.375C14.5192 11.375 15.0267 11.529 15.4584 11.8174C15.8901 12.1058 16.2265 12.5158 16.4252 12.9955C16.6239 13.4751 16.6758 14.0029 16.5746 14.5121C16.4733 15.0213 16.2233 15.489 15.8562 15.8562C15.489 16.2233 15.0213 16.4733 14.5121 16.5746C14.0029 16.6759 13.4751 16.6239 12.9955 16.4252C12.5158 16.2265 12.1058 15.8901 11.8174 15.4584C11.529 15.0267 11.375 14.5192 11.375 14C11.3757 13.304 11.6525 12.6367 12.1446 12.1446C12.6367 11.6525 13.304 11.3757 14 11.375ZM3.5 5.25C3.5 4.90388 3.60264 4.56554 3.79493 4.27775C3.98722 3.98997 4.26053 3.76567 4.58031 3.63321C4.90008 3.50076 5.25194 3.4661 5.59141 3.53363C5.93088 3.60115 6.2427 3.76782 6.48744 4.01256C6.73218 4.25731 6.89885 4.56913 6.96638 4.90859C7.0339 5.24806 6.99924 5.59993 6.86679 5.9197C6.73434 6.23947 6.51004 6.51278 6.22225 6.70507C5.93446 6.89737 5.59612 7 5.25 7C4.78602 6.99954 4.34116 6.81502 4.01308 6.48693C3.68499 6.15884 3.50046 5.71399 3.5 5.25ZM5.25 24.5C4.90388 24.5 4.56554 24.3974 4.27775 24.2051C3.98997 24.0128 3.76567 23.7395 3.63321 23.4197C3.50076 23.0999 3.4661 22.7481 3.53363 22.4086C3.60115 22.0691 3.76782 21.7573 4.01256 21.5126C4.25731 21.2678 4.56913 21.1012 4.90859 21.0336C5.24806 20.9661 5.59993 21.0008 5.9197 21.1332C6.23947 21.2657 6.51278 21.49 6.70507 21.7778C6.89737 22.0655 7 22.4039 7 22.75C6.99954 23.214 6.81501 23.6588 6.48693 23.9869C6.15884 24.315 5.71399 24.4995 5.25 24.5ZM22.75 24.5C22.4039 24.5 22.0655 24.3974 21.7778 24.2051C21.49 24.0128 21.2657 23.7395 21.1332 23.4197C21.0008 23.0999 20.9661 22.7481 21.0336 22.4086C21.1012 22.0691 21.2678 21.7573 21.5126 21.5126C21.7573 21.2678 22.0691 21.1012 22.4086 21.0336C22.7481 20.9661 23.0999 21.0008 23.4197 21.1332C23.7395 21.2657 24.0128 21.49 24.2051 21.7778C24.3974 22.0655 24.5 22.4039 24.5 22.75C24.4993 23.2139 24.3147 23.6586 23.9867 23.9867C23.6586 24.3147 23.2139 24.4993 22.75 24.5Z" fill="#7165FF"/>
</svg>
