<svg width="56" height="57" viewBox="0 0 56 57" fill="none" xmlns="http://www.w3.org/2000/svg">
<circle cx="28" cy="28.5596" r="28" fill="#E9E8FF"/>
<path d="M36.75 33.8096C36.1269 33.8128 35.5163 33.9842 34.9825 34.3057L31.6461 30.9684C32.1215 30.255 32.3751 29.4169 32.3751 28.5596C32.3751 27.7023 32.1215 26.8641 31.6461 26.1507L33.8748 23.9221C34.4385 24.1936 35.0802 24.2569 35.6861 24.1006C36.2921 23.9443 36.8232 23.5787 37.1853 23.0683C37.5474 22.558 37.7172 21.936 37.6647 21.3124C37.6121 20.6889 37.3405 20.1041 36.898 19.6616C36.4555 19.2191 35.8707 18.9475 35.2472 18.8949C34.6236 18.8423 34.0016 19.0122 33.4912 19.3743C32.9809 19.7364 32.6152 20.2675 32.459 20.8734C32.3027 21.4794 32.3659 22.1211 32.6375 22.6848L30.4089 24.9134C29.6954 24.4381 28.8573 24.1844 28 24.1844C27.1427 24.1844 26.3046 24.4381 25.5911 24.9134L22.2539 21.5762C22.5752 21.0427 22.7466 20.4324 22.75 19.8096C22.75 19.1173 22.5447 18.4406 22.1601 17.8651C21.7756 17.2895 21.2289 16.8409 20.5894 16.576C19.9499 16.3111 19.2461 16.2418 18.5672 16.3768C17.8883 16.5119 17.2646 16.8452 16.7751 17.3347C16.2856 17.8242 15.9523 18.4478 15.8173 19.1268C15.6822 19.8057 15.7515 20.5094 16.0164 21.149C16.2813 21.7885 16.7299 22.3351 17.3055 22.7197C17.8811 23.1043 18.5578 23.3096 19.25 23.3096C19.8731 23.3063 20.4837 23.1349 21.0175 22.8134L24.3539 26.1507C23.8785 26.8641 23.6249 27.7023 23.6249 28.5596C23.6249 29.4169 23.8785 30.255 24.3539 30.9684L21.0166 34.3057C20.4831 33.9844 19.8728 33.813 19.25 33.8096C18.5578 33.8096 17.8811 34.0148 17.3055 34.3994C16.7299 34.784 16.2813 35.3306 16.0164 35.9702C15.7515 36.6097 15.6822 37.3135 15.8173 37.9924C15.9523 38.6713 16.2856 39.295 16.7751 39.7844C17.2646 40.2739 17.8883 40.6073 18.5672 40.7423C19.2461 40.8774 19.9499 40.8081 20.5894 40.5432C21.2289 40.2782 21.7756 39.8296 22.1601 39.2541C22.5447 38.6785 22.75 38.0018 22.75 37.3096C22.7468 36.6865 22.5754 36.0758 22.2539 35.5421L25.5911 32.2057C26.0565 32.5159 26.5773 32.7333 27.125 32.8462V35.7206C26.5412 35.927 26.0491 36.3331 25.7358 36.8672C25.4225 37.4014 25.3081 38.029 25.4128 38.6393C25.5175 39.2497 25.8346 39.8033 26.308 40.2024C26.7815 40.6015 27.3808 40.8204 28 40.8204C28.6192 40.8204 29.2185 40.6015 29.692 40.2024C30.1654 39.8033 30.4825 39.2497 30.5872 38.6393C30.6919 38.029 30.5775 37.4014 30.2642 36.8672C29.9509 36.3331 29.4588 35.927 28.875 35.7206V32.8462C29.4227 32.7333 29.9435 32.5159 30.4089 32.2057L33.7461 35.5429C33.4248 36.0765 33.2534 36.6868 33.25 37.3096C33.25 38.0018 33.4553 38.6785 33.8399 39.2541C34.2244 39.8296 34.7711 40.2782 35.4106 40.5432C36.0502 40.8081 36.7539 40.8774 37.4328 40.7423C38.1118 40.6073 38.7354 40.2739 39.2249 39.7844C39.7144 39.295 40.0477 38.6713 40.1828 37.9924C40.3178 37.3135 40.2485 36.6097 39.9836 35.9702C39.7187 35.3306 39.2701 34.784 38.6945 34.3994C38.1189 34.0148 37.4422 33.8096 36.75 33.8096ZM28 25.9346C28.5192 25.9346 29.0267 26.0885 29.4584 26.377C29.8901 26.6654 30.2265 27.0754 30.4252 27.555C30.6239 28.0347 30.6758 28.5625 30.5746 29.0717C30.4733 29.5809 30.2233 30.0486 29.8562 30.4157C29.489 30.7828 29.0213 31.0328 28.5121 31.1341C28.0029 31.2354 27.4751 31.1834 26.9955 30.9848C26.5158 30.7861 26.1058 30.4496 25.8174 30.0179C25.529 29.5863 25.375 29.0787 25.375 28.5596C25.3757 27.8636 25.6525 27.1963 26.1446 26.7042C26.6367 26.2121 27.304 25.9353 28 25.9346ZM17.5 19.8096C17.5 19.4635 17.6026 19.1251 17.7949 18.8373C17.9872 18.5495 18.2605 18.3252 18.5803 18.1928C18.9001 18.0603 19.2519 18.0257 19.5914 18.0932C19.9309 18.1607 20.2427 18.3274 20.4874 18.5721C20.7322 18.8169 20.8989 19.1287 20.9664 19.4682C21.0339 19.8076 20.9992 20.1595 20.8668 20.4793C20.7343 20.799 20.51 21.0724 20.2222 21.2646C19.9345 21.4569 19.5961 21.5596 19.25 21.5596C18.786 21.5591 18.3412 21.3746 18.0131 21.0465C17.685 20.7184 17.5005 20.2736 17.5 19.8096ZM19.25 39.0596C18.9039 39.0596 18.5655 38.9569 18.2778 38.7646C17.99 38.5724 17.7657 38.299 17.6332 37.9793C17.5008 37.6595 17.4661 37.3076 17.5336 36.9682C17.6012 36.6287 17.7678 36.3169 18.0126 36.0721C18.2573 35.8274 18.5691 35.6607 18.9086 35.5932C19.2481 35.5257 19.5999 35.5603 19.9197 35.6928C20.2395 35.8252 20.5128 36.0495 20.7051 36.3373C20.8974 36.6251 21 36.9635 21 37.3096C20.9995 37.7736 20.815 38.2184 20.4869 38.5465C20.1588 38.8746 19.714 39.0591 19.25 39.0596ZM36.75 39.0596C36.4039 39.0596 36.0655 38.9569 35.7778 38.7646C35.49 38.5724 35.2657 38.299 35.1332 37.9793C35.0008 37.6595 34.9661 37.3076 35.0336 36.9682C35.1012 36.6287 35.2678 36.3169 35.5126 36.0721C35.7573 35.8274 36.0691 35.6607 36.4086 35.5932C36.7481 35.5257 37.0999 35.5603 37.4197 35.6928C37.7395 35.8252 38.0128 36.0495 38.2051 36.3373C38.3974 36.6251 38.5 36.9635 38.5 37.3096C38.4993 37.7735 38.3147 38.2182 37.9867 38.5462C37.6586 38.8743 37.2139 39.0589 36.75 39.0596Z" fill="#7165FF"/>
</svg>
