<svg width="56" height="56" viewBox="0 0 56 56" fill="none" xmlns="http://www.w3.org/2000/svg">
<circle cx="28" cy="27.9961" r="28" fill="#E9E8FF"/>
<path d="M36.75 33.2461C36.1269 33.2493 35.5163 33.4207 34.9825 33.7422L31.6461 30.405C32.1215 29.6915 32.3751 28.8534 32.3751 27.9961C32.3751 27.1388 32.1215 26.3007 31.6461 25.5872L33.8748 23.3586C34.4385 23.6302 35.0802 23.6934 35.6861 23.5371C36.2921 23.3809 36.8232 23.0152 37.1853 22.5049C37.5474 21.9945 37.7172 21.3725 37.6647 20.7489C37.6121 20.1254 37.3405 19.5406 36.898 19.0981C36.4555 18.6556 35.8707 18.384 35.2472 18.3314C34.6236 18.2789 34.0016 18.4487 33.4912 18.8108C32.9809 19.1729 32.6152 19.704 32.459 20.3099C32.3027 20.9159 32.3659 21.5576 32.6375 22.1213L30.4089 24.35C29.6954 23.8746 28.8573 23.621 28 23.621C27.1427 23.621 26.3046 23.8746 25.5911 24.35L22.2539 21.0127C22.5752 20.4792 22.7466 19.8689 22.75 19.2461C22.75 18.5539 22.5447 17.8772 22.1601 17.3016C21.7756 16.726 21.2289 16.2774 20.5894 16.0125C19.9499 15.7476 19.2461 15.6783 18.5672 15.8133C17.8883 15.9484 17.2646 16.2817 16.7751 16.7712C16.2856 17.2607 15.9523 17.8843 15.8173 18.5633C15.6822 19.2422 15.7515 19.9459 16.0164 20.5855C16.2813 21.225 16.7299 21.7717 17.3055 22.1562C17.8811 22.5408 18.5578 22.7461 19.25 22.7461C19.8731 22.7429 20.4837 22.5715 21.0175 22.25L24.3539 25.5872C23.8785 26.3007 23.6249 27.1388 23.6249 27.9961C23.6249 28.8534 23.8785 29.6915 24.3539 30.405L21.0166 33.7422C20.4831 33.4209 19.8728 33.2495 19.25 33.2461C18.5578 33.2461 17.8811 33.4514 17.3055 33.836C16.7299 34.2205 16.2813 34.7672 16.0164 35.4067C15.7515 36.0462 15.6822 36.75 15.8173 37.4289C15.9523 38.1078 16.2856 38.7315 16.7751 39.221C17.2646 39.7105 17.8883 40.0438 18.5672 40.1788C19.2461 40.3139 19.9499 40.2446 20.5894 39.9797C21.2289 39.7148 21.7756 39.2662 22.1601 38.6906C22.5447 38.115 22.75 37.4383 22.75 36.7461C22.7468 36.123 22.5754 35.5124 22.2539 34.9786L25.5911 31.6422C26.0565 31.9524 26.5773 32.1699 27.125 32.2827V35.1571C26.5412 35.3635 26.0491 35.7697 25.7358 36.3038C25.4225 36.8379 25.3081 37.4656 25.4128 38.0759C25.5175 38.6862 25.8346 39.2398 26.308 39.6389C26.7815 40.0381 27.3808 40.257 28 40.257C28.6192 40.257 29.2185 40.0381 29.692 39.6389C30.1654 39.2398 30.4825 38.6862 30.5872 38.0759C30.6919 37.4656 30.5775 36.8379 30.2642 36.3038C29.9509 35.7697 29.4588 35.3635 28.875 35.1571V32.2827C29.4227 32.1699 29.9435 31.9524 30.4089 31.6422L33.7461 34.9795C33.4248 35.513 33.2534 36.1233 33.25 36.7461C33.25 37.4383 33.4553 38.115 33.8399 38.6906C34.2244 39.2662 34.7711 39.7148 35.4106 39.9797C36.0502 40.2446 36.7539 40.3139 37.4328 40.1788C38.1118 40.0438 38.7354 39.7105 39.2249 39.221C39.7144 38.7315 40.0477 38.1078 40.1828 37.4289C40.3178 36.75 40.2485 36.0462 39.9836 35.4067C39.7187 34.7672 39.2701 34.2205 38.6945 33.836C38.1189 33.4514 37.4422 33.2461 36.75 33.2461ZM28 25.3711C28.5192 25.3711 29.0267 25.5251 29.4584 25.8135C29.8901 26.1019 30.2265 26.5119 30.4252 26.9916C30.6239 27.4712 30.6758 27.999 30.5746 28.5082C30.4733 29.0174 30.2233 29.4851 29.8562 29.8523C29.489 30.2194 29.0213 30.4694 28.5121 30.5707C28.0029 30.6719 27.4751 30.62 26.9955 30.4213C26.5158 30.2226 26.1058 29.8861 25.8174 29.4545C25.529 29.0228 25.375 28.5153 25.375 27.9961C25.3757 27.3001 25.6525 26.6328 26.1446 26.1407C26.6367 25.6486 27.304 25.3718 28 25.3711ZM17.5 19.2461C17.5 18.9 17.6026 18.5616 17.7949 18.2738C17.9872 17.9861 18.2605 17.7618 18.5803 17.6293C18.9001 17.4969 19.2519 17.4622 19.5914 17.5297C19.9309 17.5972 20.2427 17.7639 20.4874 18.0087C20.7322 18.2534 20.8989 18.5652 20.9664 18.9047C21.0339 19.2442 20.9992 19.596 20.8668 19.9158C20.7343 20.2356 20.51 20.5089 20.2222 20.7012C19.9345 20.8935 19.5961 20.9961 19.25 20.9961C18.786 20.9956 18.3412 20.8111 18.0131 20.483C17.685 20.1549 17.5005 19.7101 17.5 19.2461ZM19.25 38.4961C18.9039 38.4961 18.5655 38.3935 18.2778 38.2012C17.99 38.0089 17.7657 37.7356 17.6332 37.4158C17.5008 37.096 17.4661 36.7442 17.5336 36.4047C17.6012 36.0652 17.7678 35.7534 18.0126 35.5087C18.2573 35.2639 18.5691 35.0972 18.9086 35.0297C19.2481 34.9622 19.5999 34.9969 19.9197 35.1293C20.2395 35.2618 20.5128 35.4861 20.7051 35.7738C20.8974 36.0616 21 36.4 21 36.7461C20.9995 37.2101 20.815 37.6549 20.4869 37.983C20.1588 38.3111 19.714 38.4956 19.25 38.4961ZM36.75 38.4961C36.4039 38.4961 36.0655 38.3935 35.7778 38.2012C35.49 38.0089 35.2657 37.7356 35.1332 37.4158C35.0008 37.096 34.9661 36.7442 35.0336 36.4047C35.1012 36.0652 35.2678 35.7534 35.5126 35.5087C35.7573 35.2639 36.0691 35.0972 36.4086 35.0297C36.7481 34.9622 37.0999 34.9969 37.4197 35.1293C37.7395 35.2618 38.0128 35.4861 38.2051 35.7738C38.3974 36.0616 38.5 36.4 38.5 36.7461C38.4993 37.21 38.3147 37.6547 37.9867 37.9828C37.6586 38.3108 37.2139 38.4954 36.75 38.4961Z" fill="#7165FF"/>
</svg>
