<svg width="56" height="57" viewBox="0 0 56 57" fill="none" xmlns="http://www.w3.org/2000/svg">
<circle cx="28" cy="28.5596" r="28" fill="#E9E8FF"/>
<path d="M25.1993 37.8932H30.7993C35.466 37.8932 37.3327 36.0266 37.3327 31.3599V25.7599C37.3327 21.0932 35.466 19.2266 30.7993 19.2266H25.1993C20.5327 19.2266 18.666 21.0932 18.666 25.7599V31.3599C18.666 36.0266 20.5327 37.8932 25.1993 37.8932Z" stroke="#7165FF" stroke-width="1.5" stroke-linecap="round" stroke-linejoin="round"/>
<path d="M26.2493 34.3932H29.7493C32.666 34.3932 33.8327 33.2266 33.8327 30.3099V26.8099C33.8327 23.8932 32.666 22.7266 29.7493 22.7266H26.2493C23.3327 22.7266 22.166 23.8932 22.166 26.8099V30.3099C22.166 33.2266 23.3327 34.3932 26.2493 34.3932Z" stroke="#7165FF" stroke-width="1.5" stroke-linecap="round" stroke-linejoin="round"/>
<path d="M23.3457 19.2259V16.8926" stroke="#7165FF" stroke-width="1.5" stroke-linecap="round" stroke-linejoin="round"/>
<path d="M28 19.2259V16.8926" stroke="#7165FF" stroke-width="1.5" stroke-linecap="round" stroke-linejoin="round"/>
<path d="M32.666 19.2259V16.8926" stroke="#7165FF" stroke-width="1.5" stroke-linecap="round" stroke-linejoin="round"/>
<path d="M37.334 23.8926H39.6673" stroke="#7165FF" stroke-width="1.5" stroke-linecap="round" stroke-linejoin="round"/>
<path d="M37.333 28.5596H39.6663" stroke="#7165FF" stroke-width="1.5" stroke-linecap="round" stroke-linejoin="round"/>
<path d="M37.334 33.2266H39.6673" stroke="#7165FF" stroke-width="1.5" stroke-linecap="round" stroke-linejoin="round"/>
<path d="M32.666 37.8926V40.2259" stroke="#7165FF" stroke-width="1.5" stroke-linecap="round" stroke-linejoin="round"/>
<path d="M28.0117 37.8926V40.2259" stroke="#7165FF" stroke-width="1.5" stroke-linecap="round" stroke-linejoin="round"/>
<path d="M23.3457 37.8926V40.2259" stroke="#7165FF" stroke-width="1.5" stroke-linecap="round" stroke-linejoin="round"/>
<path d="M16.334 23.8926H18.6673" stroke="#7165FF" stroke-width="1.5" stroke-linecap="round" stroke-linejoin="round"/>
<path d="M16.333 28.5596H18.6663" stroke="#7165FF" stroke-width="1.5" stroke-linecap="round" stroke-linejoin="round"/>
<path d="M16.334 33.2266H18.6673" stroke="#7165FF" stroke-width="1.5" stroke-linecap="round" stroke-linejoin="round"/>
</svg>
