<svg width="28" height="28" viewBox="0 0 28 28" fill="none" xmlns="http://www.w3.org/2000/svg">
<path d="M11.1998 23.3337H16.7998C21.4665 23.3337 23.3332 21.467 23.3332 16.8003V11.2003C23.3332 6.53366 21.4665 4.66699 16.7998 4.66699H11.1998C6.53317 4.66699 4.6665 6.53366 4.6665 11.2003V16.8003C4.6665 21.467 6.53317 23.3337 11.1998 23.3337Z" stroke="#7165FF" stroke-width="1.5" stroke-linecap="round" stroke-linejoin="round"/>
<path d="M12.2498 19.8337H15.7498C18.6665 19.8337 19.8332 18.667 19.8332 15.7503V12.2503C19.8332 9.33366 18.6665 8.16699 15.7498 8.16699H12.2498C9.33317 8.16699 8.1665 9.33366 8.1665 12.2503V15.7503C8.1665 18.667 9.33317 19.8337 12.2498 19.8337Z" stroke="#7165FF" stroke-width="1.5" stroke-linecap="round" stroke-linejoin="round"/>
<path d="M9.34521 4.66634V2.33301" stroke="#7165FF" stroke-width="1.5" stroke-linecap="round" stroke-linejoin="round"/>
<path d="M14 4.66634V2.33301" stroke="#7165FF" stroke-width="1.5" stroke-linecap="round" stroke-linejoin="round"/>
<path d="M18.6665 4.66634V2.33301" stroke="#7165FF" stroke-width="1.5" stroke-linecap="round" stroke-linejoin="round"/>
<path d="M23.3335 9.33301H25.6668" stroke="#7165FF" stroke-width="1.5" stroke-linecap="round" stroke-linejoin="round"/>
<path d="M23.3333 14H25.6666" stroke="#7165FF" stroke-width="1.5" stroke-linecap="round" stroke-linejoin="round"/>
<path d="M23.3335 18.667H25.6668" stroke="#7165FF" stroke-width="1.5" stroke-linecap="round" stroke-linejoin="round"/>
<path d="M18.6665 23.333V25.6663" stroke="#7165FF" stroke-width="1.5" stroke-linecap="round" stroke-linejoin="round"/>
<path d="M14.0117 23.333V25.6663" stroke="#7165FF" stroke-width="1.5" stroke-linecap="round" stroke-linejoin="round"/>
<path d="M9.34521 23.333V25.6663" stroke="#7165FF" stroke-width="1.5" stroke-linecap="round" stroke-linejoin="round"/>
<path d="M2.3335 9.33301H4.66683" stroke="#7165FF" stroke-width="1.5" stroke-linecap="round" stroke-linejoin="round"/>
<path d="M2.33331 14H4.66665" stroke="#7165FF" stroke-width="1.5" stroke-linecap="round" stroke-linejoin="round"/>
<path d="M2.3335 18.667H4.66683" stroke="#7165FF" stroke-width="1.5" stroke-linecap="round" stroke-linejoin="round"/>
</svg>
