<svg width="26" height="23" viewBox="0 0 26 23" fill="none" xmlns="http://www.w3.org/2000/svg">
<g clip-path="url(#clip0_308_14396)">
<path d="M7.23218 1.31333C7.30055 1.31311 7.30055 1.31311 7.37031 1.31289C7.52198 1.31247 7.67364 1.31239 7.82531 1.31232C7.93452 1.31209 8.04372 1.31184 8.15292 1.31158C8.44895 1.31094 8.74497 1.31063 9.04099 1.31041C9.2263 1.31027 9.41161 1.31007 9.59692 1.30985C10.1113 1.30926 10.6257 1.30875 11.1401 1.30858C11.1729 1.30857 11.2058 1.30856 11.2396 1.30855C11.289 1.30854 11.289 1.30854 11.3394 1.30852C11.4062 1.3085 11.4729 1.30848 11.5396 1.30845C11.5727 1.30844 11.6058 1.30843 11.6399 1.30842C12.175 1.30823 12.7102 1.30738 13.2454 1.30624C13.7966 1.30508 14.3477 1.30448 14.8989 1.30442C15.2077 1.30436 15.5164 1.30408 15.8252 1.3032C16.1161 1.30239 16.407 1.3023 16.6979 1.30272C16.8039 1.30276 16.91 1.30255 17.0161 1.30207C17.8175 1.29861 18.6422 1.31946 19.3966 1.62231C19.4345 1.63698 19.4725 1.65165 19.5117 1.66676C20.0724 1.89061 20.5583 2.19637 21.017 2.58972C21.0469 2.61307 21.0767 2.63642 21.1074 2.66048C22.0861 3.44024 22.6341 4.73453 22.8025 5.94154C22.8514 6.37447 22.8377 6.81299 22.8371 7.24797C22.8373 7.35721 22.8376 7.46645 22.8378 7.57569C22.8385 7.87069 22.8385 8.16569 22.8384 8.46069C22.8384 8.70783 22.8386 8.95498 22.8388 9.20212C22.8394 9.81902 22.8394 10.4359 22.839 11.0528C22.8388 11.5864 22.8393 12.12 22.8403 12.6535C22.8412 13.2036 22.8416 13.7537 22.8414 14.3038C22.8413 14.6117 22.8415 14.9197 22.8422 15.2276C22.8428 15.5175 22.8427 15.8074 22.842 16.0973C22.8419 16.2029 22.842 16.3086 22.8425 16.4143C22.8453 17.2145 22.8239 18.0384 22.5216 18.7915C22.5069 18.8295 22.4922 18.8675 22.4771 18.9066C22.2533 19.4673 21.9475 19.9532 21.5541 20.412C21.5308 20.4418 21.5074 20.4716 21.4834 20.5024C20.7037 21.4809 19.4094 22.0291 18.2026 22.1975C17.7683 22.2464 17.3283 22.2321 16.892 22.2313C16.7824 22.2314 16.6727 22.2316 16.5631 22.2318C16.2671 22.2322 15.9711 22.232 15.6751 22.2317C15.3644 22.2315 15.0536 22.2317 14.7428 22.2319C14.1877 22.2321 13.6326 22.2318 13.0774 22.2313C12.5754 22.2308 12.0734 22.2309 11.5714 22.2314C10.9866 22.2319 10.4019 22.2321 9.81711 22.2318C9.50822 22.2316 9.19933 22.2316 8.89045 22.2319C8.59996 22.2322 8.30947 22.232 8.01898 22.2315C7.91281 22.2313 7.80664 22.2314 7.70048 22.2316C7.00891 22.2329 6.33472 22.2194 5.6667 22.0172C5.63235 22.0069 5.59799 21.9965 5.5626 21.9859C4.24075 21.5665 3.18328 20.6382 2.51118 19.4354C1.99967 18.4135 1.91038 17.4119 1.91183 16.2908C1.91162 16.1816 1.91136 16.0724 1.91107 15.9631C1.91042 15.6681 1.91039 15.3731 1.91052 15.0781C1.91057 14.831 1.91033 14.5838 1.9101 14.3367C1.90952 13.7198 1.90956 13.1029 1.90988 12.486C1.91013 11.9524 1.90958 11.4188 1.90865 10.8853C1.9077 10.3352 1.90732 9.7851 1.90749 9.23502C1.90757 8.92708 1.90745 8.61914 1.90677 8.3112C1.90615 8.02131 1.90625 7.73143 1.90689 7.44153C1.907 7.33586 1.90687 7.23019 1.90647 7.12452C1.90361 6.32433 1.92502 5.50042 2.22737 4.74731C2.24203 4.70933 2.2567 4.67134 2.27182 4.63221C2.49559 4.07165 2.80102 3.58499 3.19477 3.12682C3.22001 3.09453 3.24525 3.06225 3.27126 3.02898C4.07143 2.03629 5.39274 1.46591 6.63666 1.33074C6.83522 1.31364 7.033 1.31312 7.23218 1.31333ZM17.1451 5.51864C16.9577 5.74043 16.9004 5.98965 16.9124 6.27624C16.9597 6.56669 17.1135 6.82511 17.3475 7.00465C17.6247 7.1677 17.8696 7.2154 18.185 7.17956C18.4883 7.08835 18.6951 6.90332 18.8686 6.64245C18.9937 6.37516 19.0188 6.11255 18.9235 5.83392C18.7968 5.55345 18.6597 5.36286 18.3803 5.22643C17.8898 5.05183 17.515 5.17209 17.1451 5.51864ZM8.401 8.40644C7.44468 9.51002 7.11579 10.9247 7.19868 12.3553C7.34869 13.7208 8.07514 14.9315 9.10298 15.8221C10.2323 16.723 11.6646 17.0875 13.0939 16.9305C14.4798 16.7214 15.7184 15.9622 16.5698 14.8506C17.3829 13.741 17.7154 12.331 17.5169 10.9706C17.2781 9.59118 16.524 8.32688 15.3741 7.51255C13.1066 5.98875 10.2305 6.40964 8.401 8.40644Z" fill="#7D818D"/>
<path d="M14.0279 9.04777C14.7441 9.54561 15.2784 10.2074 15.4805 11.0724C15.5839 11.699 15.5634 12.4071 15.3036 12.9906C15.2859 13.0333 15.2682 13.0759 15.25 13.1198C14.8744 13.9486 14.1782 14.4702 13.3573 14.8055C12.5619 15.0503 11.6165 14.9486 10.8846 14.5776C10.0829 14.1429 9.56096 13.4401 9.29219 12.5706C9.14071 11.9314 9.17678 11.1498 9.4442 10.5492C9.46189 10.5066 9.47958 10.464 9.4978 10.4201C9.8358 9.6742 10.452 9.13472 11.2022 8.82938C12.1269 8.48586 13.174 8.53824 14.0279 9.04777Z" fill="#7D818D"/>
</g>
<defs>
<clipPath id="clip0_308_14396">
<rect width="25" height="22.5" fill="white" transform="translate(0.5 0.230713)"/>
</clipPath>
</defs>
</svg>
