<svg width="56" height="57" viewBox="0 0 56 57" fill="none" xmlns="http://www.w3.org/2000/svg">
<circle cx="28" cy="28.3838" r="28" fill="#E9E8FF"/>
<path d="M18.0056 17.0346C18.0954 17.0344 18.1853 17.034 18.2752 17.0336C18.521 17.0327 18.7669 17.0331 19.0128 17.0338C19.2784 17.0343 19.5439 17.0335 19.8095 17.0329C20.3293 17.032 20.8492 17.0322 21.369 17.0328C21.7916 17.0333 22.2141 17.0334 22.6367 17.0331C22.6969 17.0331 22.757 17.0331 22.819 17.033C22.9413 17.0329 23.0635 17.0329 23.1858 17.0328C24.3317 17.0322 25.4776 17.0329 26.6236 17.0341C27.6065 17.0351 28.5894 17.0349 29.5723 17.0339C30.7142 17.0327 31.8561 17.0322 32.9979 17.0329C33.1197 17.033 33.2415 17.0331 33.3633 17.0331C33.4532 17.0332 33.4532 17.0332 33.5449 17.0332C33.9669 17.0334 34.3888 17.0331 34.8108 17.0326C35.3251 17.032 35.8395 17.0321 36.3538 17.0333C36.6162 17.0339 36.8785 17.0341 37.1409 17.0334C37.3812 17.0327 37.6215 17.0331 37.8618 17.0342C37.9486 17.0345 38.0353 17.0344 38.1221 17.0338C38.7303 17.0304 39.2503 17.0808 39.7202 17.5033C39.7629 17.54 39.8055 17.5768 39.8495 17.6146C42.516 20.9444 40.25 26.1402 40.25 30.4061C32.165 30.4061 24.08 30.4061 15.75 30.4061C15.75 18.0661 15.75 18.0661 16.3105 17.4725C16.8024 17.0379 17.3833 17.0308 18.0056 17.0346ZM30.4062 20.7811C30.3082 20.9178 30.235 21.0649 30.1602 21.2152C30.1368 21.2609 30.1134 21.3066 30.0893 21.3536C29.8636 21.8002 29.6551 22.2549 29.4465 22.7096C29.1829 23.2834 28.9068 23.8508 28.6289 24.4179C28.2855 25.1189 27.9477 25.8218 27.6224 26.5314C27.4805 26.8409 27.3345 27.1465 27.1767 27.4482C27.1055 27.6056 27.0927 27.7211 27.125 27.8905C27.2091 28.0635 27.2637 28.1005 27.4463 28.164C27.6736 28.164 27.7284 28.1021 27.8906 27.9452C27.9714 27.8086 28.0409 27.6781 28.1077 27.535C28.1272 27.4946 28.1467 27.4542 28.1668 27.4126C28.2304 27.2805 28.2929 27.148 28.3555 27.0155C28.3998 26.9229 28.4442 26.8303 28.4886 26.7378C28.7673 26.1554 29.0399 25.5701 29.3096 24.9834C29.6325 24.2836 29.9726 23.5921 30.3119 22.9001C30.3951 22.73 30.4779 22.5597 30.5606 22.3894C30.6285 22.2505 30.6973 22.1119 30.7661 21.9734C30.8117 21.8803 30.8572 21.7871 30.9027 21.694C30.9242 21.6511 30.9458 21.6083 30.9679 21.5642C31.0803 21.3321 31.1532 21.1546 31.1172 20.8905C31.019 20.7607 30.9384 20.6911 30.7925 20.6205C30.6183 20.6152 30.5452 20.6764 30.4062 20.7811ZM19.0859 22.1483C19.0444 22.3016 19.0444 22.3016 19.0497 22.474C19.0486 22.5397 19.0476 22.6055 19.0465 22.6732C19.0469 22.7442 19.0473 22.8152 19.0477 22.8883C19.0474 22.9625 19.047 23.0366 19.0465 23.1107C19.0459 23.2663 19.0462 23.4218 19.0473 23.5774C19.0485 23.775 19.0471 23.9725 19.0448 24.1701C19.0434 24.3235 19.0436 24.4768 19.0442 24.6302C19.0443 24.7379 19.043 24.8456 19.0417 24.9533C19.0491 25.5277 19.201 26.005 19.6191 26.414C20.1304 26.807 20.6497 26.8484 21.2734 26.7968C21.7179 26.725 22.0943 26.4727 22.3597 26.111C22.5632 25.7818 22.6467 25.5444 22.6503 25.1567C22.651 25.0906 22.6517 25.0245 22.6524 24.9565C22.6528 24.8853 22.6532 24.8142 22.6537 24.7409C22.6539 24.7045 22.6541 24.6682 22.6543 24.6308C22.6555 24.4387 22.6563 24.2466 22.6568 24.0545C22.6574 23.8563 22.6593 23.6581 22.6614 23.4598C22.6629 23.3072 22.6633 23.1545 22.6635 23.0018C22.6639 22.8933 22.6654 22.7847 22.6668 22.6761C22.6667 22.6101 22.6665 22.544 22.6663 22.4759C22.6668 22.3887 22.6668 22.3887 22.6673 22.2998C22.6339 22.1099 22.5733 22.0456 22.4219 21.9296C22.2331 21.902 22.1338 21.9069 21.9673 22.0014C21.801 22.1676 21.8133 22.3395 21.8126 22.5623C21.8122 22.6247 21.8118 22.6872 21.8114 22.7515C21.8112 22.819 21.8109 22.8865 21.8107 22.956C21.8094 23.0986 21.8081 23.2411 21.8067 23.3836C21.8048 23.6086 21.8031 23.8336 21.8025 24.0587C21.8018 24.2756 21.7994 24.4925 21.797 24.7095C21.7971 24.7766 21.7972 24.8438 21.7973 24.913C21.789 25.4986 21.789 25.4986 21.5469 25.7577C21.2397 25.9556 20.9396 26.0051 20.583 25.9389C20.3321 25.8752 20.1501 25.7762 20.0095 25.5509C19.9497 25.4015 19.9468 25.2838 19.9461 25.1229C19.9453 25.0307 19.9453 25.0307 19.9444 24.9365C19.9443 24.8703 19.9442 24.8041 19.9441 24.7359C19.9427 24.5958 19.9413 24.4557 19.9399 24.3156C19.9382 24.0947 19.937 23.8738 19.936 23.6528C19.9349 23.4396 19.9326 23.2265 19.9304 23.0133C19.9304 22.9472 19.9304 22.8811 19.9304 22.813C19.9296 22.7513 19.9289 22.6897 19.9282 22.6261C19.9279 22.572 19.9276 22.5179 19.9273 22.4621C19.8952 22.2341 19.7934 22.0902 19.6328 21.9296C19.3791 21.8884 19.264 21.9722 19.0859 22.1483ZM23.3242 22.0458C23.2193 22.2469 23.2377 22.3136 23.2969 22.5311C23.375 22.6797 23.4682 22.8161 23.5635 22.9541C23.59 22.9934 23.6165 23.0328 23.6438 23.0733C23.7281 23.1983 23.8133 23.3227 23.8984 23.4472C23.9834 23.5725 24.0683 23.6979 24.1531 23.8234C24.2058 23.9012 24.2587 23.979 24.3118 24.0567C24.4943 24.3244 24.4943 24.3244 24.5547 24.4452C24.5363 24.4704 24.5179 24.4957 24.499 24.5217C24.3124 24.7781 24.127 25.0353 23.9423 25.293C23.8492 25.422 23.755 25.5502 23.6607 25.6782C23.6054 25.7548 23.5503 25.8314 23.4951 25.9081C23.4688 25.9432 23.4424 25.9783 23.4153 26.0145C23.2957 26.183 23.241 26.2776 23.2499 26.487C23.3099 26.678 23.3099 26.678 23.4609 26.7968C23.6404 26.8517 23.6404 26.8517 23.8438 26.7968C24.204 26.5149 24.4547 26.0689 24.712 25.695C24.7388 25.6561 24.7656 25.6171 24.7933 25.577C24.8172 25.542 24.841 25.5071 24.8656 25.471C24.9374 25.375 25.0147 25.2934 25.1016 25.2108C25.1247 25.2453 25.1478 25.2797 25.1717 25.3152C25.2779 25.4731 25.3846 25.6308 25.4912 25.7885C25.5276 25.8426 25.564 25.8968 25.6014 25.9526C25.9255 26.5044 25.9255 26.5044 26.4209 26.8309C26.5957 26.7929 26.6771 26.7658 26.7969 26.6327C26.85 26.4445 26.8689 26.3438 26.7887 26.1628C26.7565 26.1164 26.7243 26.07 26.6911 26.0222C26.6557 25.9701 26.6202 25.9181 26.5837 25.8645C26.5268 25.7845 26.5268 25.7845 26.4688 25.703C26.4323 25.6513 26.3958 25.5996 26.3583 25.5463C26.1366 25.2331 26.1366 25.2331 25.9117 24.9222C25.8761 24.8715 25.8405 24.8209 25.8037 24.7686C25.7712 24.7235 25.7387 24.6783 25.7052 24.6318C25.6484 24.4999 25.6484 24.4999 25.6851 24.3581C25.7482 24.2438 25.8109 24.1419 25.8909 24.0391C25.9171 24.005 25.9433 23.9708 25.9703 23.9357C26.0123 23.8817 26.0123 23.8817 26.0552 23.8266C26.2929 23.5139 26.5286 23.2001 26.7559 22.8798C26.782 22.8442 26.8081 22.8087 26.835 22.772C26.9843 22.559 27.0555 22.4176 27.0156 22.1483C26.9013 21.9812 26.8355 21.937 26.6362 21.8988C26.2568 21.9685 26.0254 22.4218 25.8125 22.7157C25.7795 22.7608 25.7465 22.8059 25.7125 22.8524C25.5281 23.1045 25.5281 23.1045 25.3487 23.3603C25.287 23.4502 25.222 23.5378 25.1562 23.6249C25.1202 23.6249 25.0841 23.6249 25.0469 23.6249C24.97 23.5227 24.8982 23.4168 24.8286 23.3096C24.8074 23.2773 24.7862 23.2451 24.7644 23.2118C24.6964 23.1082 24.6289 23.0043 24.5615 22.9003C24.4945 22.7971 24.4273 22.694 24.3598 22.5911C24.3178 22.527 24.276 22.4627 24.2346 22.3982C24.1195 22.2224 24.0051 22.0652 23.8438 21.9296C23.6079 21.8917 23.5085 21.8891 23.3242 22.0458ZM31.7223 22.1002C31.5874 22.3385 31.628 22.6386 31.6316 22.9043C31.6316 22.9731 31.6316 23.0418 31.6316 23.1126C31.6319 23.258 31.6327 23.4034 31.6344 23.5488C31.6366 23.7337 31.6368 23.9185 31.6364 24.1035C31.6362 24.2814 31.6374 24.4593 31.6384 24.6373C31.6384 24.703 31.6384 24.7687 31.6385 24.8363C31.6465 25.4117 31.728 25.9426 32.1562 26.3593C32.7127 26.7664 33.2344 26.8488 33.9062 26.7968C34.3942 26.6901 34.7714 26.3902 35.0479 25.9799C35.3097 25.5633 35.2909 25.079 35.2918 24.6052C35.2922 24.5373 35.2925 24.4694 35.2929 24.3994C35.2935 24.2564 35.2937 24.1134 35.2937 23.9704C35.2937 23.8241 35.2945 23.6778 35.2959 23.5314C35.2979 23.3197 35.2985 23.108 35.2986 22.8962C35.2994 22.8308 35.3002 22.7654 35.301 22.698C35.3014 22.3463 35.3014 22.3463 35.1744 22.0249C35.0546 21.9135 35.0546 21.9135 34.8633 21.8988C34.6406 21.9346 34.5895 21.9737 34.4531 22.1483C34.4207 22.2956 34.4207 22.2956 34.4259 22.4591C34.4253 22.5216 34.4248 22.584 34.4242 22.6483C34.4247 22.7155 34.4251 22.7827 34.4256 22.852C34.4251 22.9213 34.4245 22.9906 34.424 23.062C34.4227 23.2462 34.4222 23.4304 34.4223 23.6146C34.4224 23.8736 34.4219 24.1326 34.4201 24.3916C34.4192 24.5294 34.4191 24.6672 34.4198 24.805C34.4178 25.1293 34.4147 25.367 34.2344 25.6483C34.2344 25.6844 34.2344 25.7205 34.2344 25.7577C33.8107 25.9554 33.4188 26.0245 32.9766 25.8671C32.8044 25.7906 32.7232 25.7315 32.6148 25.5777C32.5011 25.2733 32.5182 24.9809 32.5207 24.6586C32.52 24.5164 32.5193 24.3741 32.5186 24.2319C32.5182 24.0082 32.5185 23.7845 32.5194 23.5608C32.5201 23.3445 32.5186 23.1283 32.5173 22.912C32.518 22.8451 32.5187 22.7782 32.5195 22.7092C32.5292 22.3358 32.5292 22.3358 32.3541 22.0241C32.2191 21.9236 32.2191 21.9236 32.0742 21.8954C31.9231 21.9332 31.83 21.9871 31.7223 22.1002ZM36.1484 22.1483C36.0838 22.3423 36.086 22.4976 36.0849 22.7023C36.0847 22.7418 36.0844 22.7813 36.0841 22.822C36.0833 22.9527 36.0829 23.0834 36.0826 23.2141C36.0823 23.305 36.082 23.396 36.0817 23.4869C36.0811 23.6776 36.0808 23.8684 36.0806 24.0591C36.0803 24.3031 36.079 24.5472 36.0774 24.7912C36.0764 24.9791 36.0761 25.167 36.0761 25.3549C36.0759 25.4448 36.0755 25.5347 36.0747 25.6247C36.0738 25.7507 36.0739 25.8767 36.0743 26.0028C36.0741 26.0744 36.0739 26.1461 36.0737 26.2199C36.0954 26.4303 36.1471 26.563 36.2578 26.7421C36.4132 26.8198 36.5233 26.814 36.6953 26.7968C36.8221 26.7162 36.8221 26.7162 36.9141 26.578C36.9357 26.428 36.944 26.2999 36.9424 26.15C36.9428 26.1071 36.9431 26.0643 36.9435 26.0201C36.9445 25.8785 36.9439 25.7369 36.9431 25.5954C36.9433 25.4969 36.9435 25.3984 36.9437 25.2999C36.9441 25.0936 36.9436 24.8873 36.9426 24.681C36.9413 24.4165 36.9421 24.1521 36.9434 23.8876C36.9442 23.6843 36.9439 23.481 36.9433 23.2777C36.9432 23.1801 36.9434 23.0826 36.9439 22.9851C36.9444 22.8488 36.9436 22.7126 36.9424 22.5763C36.943 22.5159 36.943 22.5159 36.9437 22.4542C36.9406 22.2672 36.9268 22.1654 36.8132 22.0139C36.6966 21.9174 36.6966 21.9174 36.5312 21.9022C36.3316 21.9355 36.2706 21.9899 36.1484 22.1483Z" fill="#5956E9"/>
<path d="M15.7503 31.2266C23.8353 31.2266 31.9203 31.2266 40.2503 31.2266C40.2503 33.238 40.2503 33.238 39.7688 33.7518C39.3515 34.0986 38.8914 34.2414 38.3582 34.241C38.3226 34.241 38.2871 34.241 38.2505 34.2411C38.132 34.2412 38.0134 34.2409 37.8948 34.2406C37.8097 34.2406 37.7245 34.2406 37.6393 34.2406C37.4084 34.2406 37.1775 34.2403 36.9466 34.2399C36.7051 34.2396 36.4637 34.2395 36.2222 34.2395C35.7652 34.2393 35.3081 34.2389 34.851 34.2383C34.3306 34.2377 33.8102 34.2374 33.2897 34.2371C32.2193 34.2366 31.1489 34.2356 30.0784 34.2344C30.1199 34.3732 30.1618 34.5119 30.2041 34.6505C30.2156 34.6894 30.2272 34.7283 30.2391 34.7683C30.6431 36.0862 31.8189 37.1443 32.8634 37.983C32.9153 38.0255 32.9153 38.0255 32.9681 38.0689C32.9997 38.0944 33.0313 38.1199 33.0638 38.1462C33.1409 38.2266 33.1409 38.2266 33.2025 38.4214C33.1949 38.6291 33.1598 38.7214 33.0316 38.8828C32.8682 38.9645 32.7195 38.9451 32.5372 38.9459C32.477 38.9463 32.477 38.9463 32.4157 38.9466C32.2806 38.9474 32.1456 38.9477 32.0105 38.948C31.9139 38.9485 31.8174 38.9489 31.7208 38.9494C31.4032 38.9508 31.0855 38.9517 30.7678 38.9525C30.6586 38.9527 30.5493 38.953 30.4401 38.9533C29.9857 38.9545 29.5313 38.9555 29.077 38.9562C28.4253 38.957 27.7736 38.9589 27.1218 38.962C26.6639 38.9641 26.206 38.9652 25.748 38.9655C25.4743 38.9657 25.2007 38.9663 24.927 38.9681C24.6696 38.9697 24.4122 38.9701 24.1548 38.9694C24.0603 38.9694 23.9657 38.9699 23.8712 38.9708C23.7422 38.9721 23.6133 38.9716 23.4843 38.9707C23.4469 38.9715 23.4094 38.9723 23.3709 38.9731C23.164 38.9696 23.0819 38.9403 22.9189 38.8083C22.805 38.6641 22.805 38.6641 22.764 38.5103C22.8525 38.134 23.1755 37.9036 23.4672 37.6724C24.4415 36.8812 25.7024 35.7584 25.9806 34.4704C25.9902 34.4262 25.9998 34.382 26.0097 34.3364C26.0205 34.2859 26.0205 34.2859 26.0316 34.2344C25.9647 34.2346 25.9647 34.2346 25.8964 34.2348C24.8101 34.2385 23.7237 34.2412 22.6373 34.2429C22.112 34.2437 21.5866 34.2449 21.0612 34.2468C20.6032 34.2484 20.1451 34.2494 19.6871 34.2498C19.4447 34.25 19.2023 34.2505 18.9599 34.2517C18.7314 34.2528 18.5029 34.2532 18.2744 34.2529C18.1909 34.253 18.1073 34.2533 18.0238 34.2539C17.3467 34.2588 16.7742 34.1934 16.2425 33.7422C15.5586 33.021 15.7503 32.25 15.7503 31.2266ZM26.5784 31.8828C26.5008 32.0382 26.5066 32.1483 26.5238 32.3203C26.6458 32.4761 26.7179 32.5309 26.9066 32.5938C27.0607 32.6004 27.2134 32.604 27.3676 32.6049C27.4128 32.6052 27.4581 32.6055 27.5047 32.6058C27.6004 32.6063 27.6961 32.6067 27.7918 32.6069C27.9379 32.6074 28.0839 32.6091 28.23 32.6108C28.323 32.6112 28.4161 32.6115 28.5092 32.6117C28.5527 32.6124 28.5962 32.613 28.6411 32.6137C28.9566 32.6125 29.139 32.5488 29.3675 32.3203C29.3949 32.1609 29.3949 32.1609 29.3675 31.9922C29.2454 31.8364 29.1734 31.7816 28.9847 31.7188C28.8312 31.7121 28.6791 31.7085 28.5256 31.7076C28.4805 31.7073 28.4354 31.707 28.3889 31.7067C28.2934 31.7062 28.198 31.7058 28.1025 31.7056C27.957 31.7051 27.8116 31.7034 27.6661 31.7017C27.5732 31.7013 27.4803 31.701 27.3874 31.7008C27.3442 31.7001 27.3009 31.6995 27.2564 31.6988C26.9907 31.6998 26.8088 31.7357 26.5784 31.8828Z" fill="#5956E9"/>
</svg>
