<svg width="56" height="57" viewBox="0 0 56 57" fill="none" xmlns="http://www.w3.org/2000/svg">
<circle cx="28" cy="28.3838" r="28" fill="#E9E8FF"/>
<path d="M16.5381 15.4689C16.6094 15.4687 16.6806 15.4685 16.7541 15.4683C16.833 15.4683 16.912 15.4683 16.991 15.4684C17.075 15.4683 17.159 15.4681 17.243 15.4679C17.4739 15.4675 17.7048 15.4674 17.9357 15.4673C18.1847 15.4672 18.4337 15.4668 18.6827 15.4664C19.2272 15.4657 19.7717 15.4654 20.3162 15.4651C20.6562 15.465 20.9962 15.4647 21.3362 15.4645C22.2776 15.4638 23.219 15.4633 24.1604 15.4631C24.2207 15.4631 24.2809 15.4631 24.343 15.463C24.4034 15.463 24.4638 15.463 24.526 15.463C24.6484 15.463 24.7708 15.463 24.8932 15.4629C24.9842 15.4629 24.9842 15.4629 25.0771 15.4629C26.0607 15.4627 27.0443 15.4617 28.0279 15.4605C29.0379 15.4592 30.0478 15.4585 31.0577 15.4584C31.6247 15.4584 32.1917 15.4581 32.7587 15.4571C33.2415 15.4562 33.7243 15.4559 34.2072 15.4564C34.4534 15.4566 34.6997 15.4566 34.946 15.4558C35.1717 15.4551 35.3973 15.4552 35.623 15.4558C35.7044 15.4559 35.7858 15.4558 35.8673 15.4553C36.5075 15.4518 37.0794 15.4897 37.56 15.9548C38.0788 16.5071 38.0707 17.1144 38.0686 17.8379C38.0686 17.9099 38.0686 17.982 38.0686 18.0563C38.0687 18.2529 38.0683 18.4496 38.068 18.6463C38.0676 18.8522 38.0676 19.0581 38.0675 19.264C38.0674 19.6535 38.0669 20.043 38.0664 20.4324C38.0657 20.876 38.0654 21.3196 38.0652 21.7632C38.0646 22.6753 38.0636 23.5874 38.0624 24.4995C37.963 24.4998 37.963 24.4998 37.8617 24.5001C37.2349 24.5021 36.6082 24.5053 35.9815 24.5096C35.6594 24.5117 35.3373 24.5135 35.0151 24.5143C34.7038 24.5152 34.3925 24.5171 34.0811 24.5197C33.9628 24.5205 33.8445 24.5209 33.7262 24.5209C32.8144 24.5217 31.9893 24.572 31.2711 25.2066C30.3052 26.2036 30.5482 27.48 30.5155 28.8198C25.318 28.8198 20.1205 28.8198 14.7655 28.8198C14.761 26.8358 14.7565 24.8518 14.7519 22.8076C14.7499 22.1811 14.7479 21.5546 14.7458 20.9092C14.7448 20.1442 14.7448 20.1442 14.7447 19.7861C14.7445 19.536 14.7436 19.2859 14.7424 19.0357C14.7409 18.7165 14.7405 18.3974 14.7408 18.0782C14.7407 17.9611 14.7403 17.844 14.7395 17.727C14.7384 17.5686 14.7386 17.4103 14.7392 17.2519C14.7386 17.2063 14.738 17.1607 14.7373 17.1138C14.7421 16.6363 14.9324 16.2498 15.2543 15.9023C15.6303 15.5754 16.0508 15.4694 16.5381 15.4689ZM18.0451 17.8672C17.9841 17.9264 17.9235 17.9859 17.8631 18.0457C17.8308 18.0775 17.7986 18.1093 17.7653 18.142C17.6975 18.209 17.6299 18.2762 17.5624 18.3435C17.4591 18.4461 17.3549 18.5476 17.2506 18.6491C17.1847 18.7145 17.1188 18.78 17.053 18.8456C17.0219 18.8756 16.9907 18.9057 16.9586 18.9367C16.7738 19.1237 16.6836 19.2568 16.6796 19.523C16.7529 19.6876 16.7529 19.6876 16.8984 19.7964C17.0803 19.8254 17.2152 19.8377 17.376 19.737C17.4773 19.65 17.5705 19.5587 17.6636 19.4629C17.6981 19.4286 17.7326 19.3943 17.7682 19.359C17.8408 19.2864 17.9129 19.2133 17.9846 19.1398C18.0942 19.0278 18.2055 18.9178 18.3172 18.8078C18.3877 18.7369 18.4581 18.6659 18.5283 18.5948C18.5615 18.562 18.5947 18.5293 18.6289 18.4956C18.8335 18.2829 18.9177 18.1351 18.9218 17.8276C18.8457 17.6669 18.7927 17.6227 18.6278 17.5576C18.3793 17.5517 18.2197 17.7043 18.0451 17.8672ZM19.5407 19.2719C19.511 19.3014 19.4813 19.3308 19.4507 19.3611C19.2941 19.5162 19.1376 19.6716 18.9814 19.8271C18.8525 19.9552 18.7232 20.0829 18.5936 20.2104C18.4361 20.3651 18.2793 20.5206 18.1229 20.6765C18.0635 20.7356 18.0039 20.7944 17.944 20.8529C17.8605 20.9347 17.7779 21.0173 17.6955 21.1001C17.6248 21.1702 17.6248 21.1702 17.5527 21.2416C17.4286 21.4041 17.3988 21.5074 17.3905 21.7105C17.4676 21.874 17.4676 21.874 17.6093 21.9839C17.7637 22.0387 17.7637 22.0387 17.9374 21.9839C18.5272 21.5543 19.0322 20.9624 19.5498 20.4483C19.676 20.3232 19.8026 20.1984 19.9296 20.0741C20.084 19.923 20.2376 19.7711 20.3907 19.6186C20.4488 19.5609 20.5072 19.5035 20.5659 19.4464C20.6479 19.3666 20.7287 19.2858 20.8094 19.2048C20.8555 19.1592 20.9017 19.1136 20.9492 19.0666C21.0791 18.8877 21.0992 18.7575 21.1093 18.5386C21.0327 18.3674 20.9692 18.3304 20.7983 18.2549C20.3221 18.2818 19.8705 18.9451 19.5407 19.2719Z" fill="#5956E9"/>
<path d="M33.1123 25.2575C33.1704 25.2572 33.2285 25.2569 33.2884 25.2565C33.3513 25.2565 33.4142 25.2564 33.479 25.2563C33.5459 25.2561 33.6128 25.2558 33.6818 25.2555C33.8647 25.2549 34.0476 25.2545 34.2306 25.2542C34.3451 25.2541 34.4597 25.2538 34.5742 25.2536C34.9332 25.2528 35.2923 25.2523 35.6513 25.2521C36.0645 25.2519 36.4776 25.2509 36.8908 25.2493C37.2111 25.2481 37.5313 25.2476 37.8515 25.2475C38.0424 25.2474 38.2333 25.2471 38.4241 25.2461C38.6373 25.2451 38.8505 25.2453 39.0637 25.2457C39.1262 25.2452 39.1887 25.2447 39.253 25.2441C39.8351 25.2472 40.3522 25.3642 40.7972 25.7573C41.1454 26.1734 41.2512 26.5616 41.2501 27.0944C41.2504 27.146 41.2507 27.1976 41.2511 27.2508C41.252 27.4236 41.2522 27.5964 41.2524 27.7692C41.2529 27.8932 41.2534 28.0171 41.254 28.1411C41.2554 28.4778 41.2561 28.8146 41.2566 29.1513C41.257 29.3618 41.2574 29.5723 41.2579 29.7828C41.2592 30.3663 41.2604 30.9498 41.2607 31.5333C41.2608 31.5893 41.2608 31.5893 41.2608 31.6464C41.2608 31.7025 41.2608 31.7025 41.2609 31.7597C41.2609 31.8355 41.261 31.9113 41.261 31.9871C41.261 32.0246 41.2611 32.0622 41.2611 32.1009C41.2615 32.7095 41.2634 33.3179 41.266 33.9264C41.2686 34.5521 41.2699 35.1777 41.2701 35.8034C41.2702 36.1543 41.2708 36.5052 41.2728 36.8561C41.2746 37.1864 41.2748 37.5167 41.2739 37.847C41.2738 37.9679 41.2742 38.0888 41.2753 38.2096C41.2862 39.5006 41.2862 39.5006 40.8095 40.029C40.4477 40.3756 40.0103 40.5291 39.5158 40.5307C39.4569 40.531 39.3979 40.5313 39.3372 40.5316C39.2731 40.5317 39.209 40.5317 39.1429 40.5318C39.0749 40.5321 39.007 40.5323 38.9369 40.5326C38.7508 40.5333 38.5647 40.5337 38.3786 40.5339C38.2621 40.5341 38.1456 40.5343 38.0292 40.5346C37.6641 40.5353 37.299 40.5358 36.934 40.536C36.5137 40.5363 36.0935 40.5372 35.6732 40.5388C35.3476 40.54 35.022 40.5406 34.6965 40.5406C34.5023 40.5407 34.3082 40.541 34.1141 40.542C33.8973 40.5431 33.6804 40.5428 33.4635 40.5425C33.3999 40.543 33.3364 40.5435 33.2709 40.544C32.5755 40.5404 32.1192 40.3683 31.6234 39.8838C31.1867 39.3018 31.2508 38.5959 31.2542 37.9069C31.254 37.786 31.2537 37.665 31.2533 37.544C31.2525 37.2168 31.2531 36.8896 31.254 36.5624C31.2548 36.2193 31.2544 35.8762 31.2542 35.5332C31.2541 34.9572 31.2548 34.3812 31.2561 33.8053C31.2574 33.2136 31.2578 32.622 31.2572 32.0304C31.2565 31.316 31.2567 30.6015 31.2575 29.887C31.2578 29.6147 31.2578 29.3424 31.2576 29.0701C31.2573 28.7492 31.2579 28.4284 31.2591 28.1076C31.2594 27.9901 31.2594 27.8726 31.2591 27.7551C31.2588 27.5943 31.2595 27.4335 31.2604 27.2726C31.2601 27.2266 31.2598 27.1805 31.2594 27.133C31.265 26.6039 31.4035 26.1442 31.7738 25.7573C32.1822 25.397 32.5661 25.2593 33.1123 25.2575ZM35.3832 26.9058C35.2555 27.0635 35.2555 27.0635 35.2772 27.2613C35.3089 27.4569 35.3089 27.4569 35.4487 27.5452C35.7175 27.6707 35.9936 27.6425 36.2855 27.6406C36.3472 27.6417 36.4089 27.6428 36.4724 27.644C36.8257 27.6464 36.8257 27.6464 37.1451 27.5125C37.2725 27.3648 37.2725 27.3648 37.2972 27.1792C37.204 26.9731 37.1235 26.8784 36.9144 26.7964C36.7762 26.7797 36.7762 26.7797 36.6275 26.7819C36.5727 26.7817 36.5179 26.7816 36.4614 26.7815C36.4045 26.7819 36.3476 26.7823 36.2889 26.7827C36.2322 26.7823 36.1755 26.7819 36.1171 26.7815C36.0622 26.7816 36.0073 26.7817 35.9508 26.7819C35.9009 26.782 35.851 26.7821 35.7996 26.7823C35.6405 26.798 35.5255 26.833 35.3832 26.9058ZM32.7035 28.5464C32.7035 31.4159 32.7035 34.2853 32.7035 37.2417C35.0676 37.2417 37.4318 37.2417 39.8676 37.2417C39.8676 34.3723 39.8676 31.5028 39.8676 28.5464C37.5034 28.5464 35.1393 28.5464 32.7035 28.5464ZM35.5472 38.3355C35.479 38.5217 35.479 38.5217 35.4926 38.7183C35.5933 38.8502 35.6732 38.918 35.8207 38.9917C35.973 39.0014 36.1228 39.0069 36.2753 39.0088C36.3168 39.0104 36.3584 39.012 36.4012 39.0136C36.6194 39.0161 36.7245 39.0082 36.9134 38.8879C37.0535 38.7441 37.0535 38.7441 37.0785 38.5542C36.9888 38.3658 36.9262 38.2886 36.7504 38.1714C36.5953 38.1593 36.4473 38.1537 36.2924 38.1543C36.251 38.1534 36.2097 38.1526 36.1672 38.1517C35.9177 38.1514 35.7465 38.1689 35.5472 38.3355Z" fill="#5956E9"/>
<path d="M14.7655 29.6406C19.963 29.6406 25.1605 29.6406 30.5155 29.6406C30.5155 30.6873 30.5155 31.7341 30.5155 32.8125C28.6995 32.8161 26.8835 32.8191 25.0674 32.8209C24.8529 32.8211 24.6384 32.8213 24.4239 32.8215C24.3812 32.8216 24.3385 32.8216 24.2945 32.8216C23.6035 32.8224 22.9125 32.8236 22.2215 32.8252C21.5122 32.8267 20.8029 32.8276 20.0935 32.8279C19.656 32.8282 19.2186 32.8289 18.7811 32.8302C18.4453 32.8312 18.1095 32.8313 17.7737 32.8311C17.6362 32.8311 17.4987 32.8314 17.3612 32.8321C17.1731 32.8329 16.9851 32.8327 16.7971 32.8322C16.7429 32.8327 16.6887 32.8332 16.633 32.8337C16.08 32.8301 15.6098 32.7088 15.203 32.3203C14.4954 31.5325 14.7655 30.82 14.7655 29.6406ZM25.1014 30.8438C25.0604 31.0078 25.0604 31.0078 25.1014 31.1719C25.2537 31.3364 25.3734 31.4038 25.5932 31.4189C25.6783 31.4204 25.7634 31.4205 25.8484 31.4197C25.9163 31.42 25.9163 31.42 25.9855 31.4203C26.0808 31.4205 26.1761 31.4201 26.2713 31.4191C26.4171 31.418 26.5627 31.4191 26.7084 31.4205C26.8011 31.4204 26.8939 31.4201 26.9866 31.4197C27.0301 31.4201 27.0736 31.4206 27.1184 31.421C27.3141 31.4177 27.4302 31.4074 27.5898 31.2897C27.7019 31.1284 27.7038 31.0361 27.6717 30.8438C27.5819 30.7132 27.5111 30.6368 27.3522 30.6046C27.2252 30.596 27.1 30.5947 26.9727 30.5959C26.9262 30.5957 26.8797 30.5955 26.8318 30.5953C26.7336 30.5952 26.6354 30.5956 26.5373 30.5965C26.3871 30.5977 26.237 30.5965 26.0869 30.5951C25.9914 30.5952 25.8959 30.5955 25.8004 30.5959C25.7555 30.5955 25.7107 30.5951 25.6645 30.5946C25.4038 30.5989 25.2596 30.6145 25.1014 30.8438Z" fill="#5956E9"/>
<path d="M23.5706 33.5781C25.4294 33.5781 27.2883 33.5781 29.2034 33.5781C29.5102 34.2278 29.817 34.8775 30.1331 35.5469C30.2594 35.5649 30.3858 35.583 30.5159 35.6016C30.5159 35.9084 30.5159 36.2152 30.5159 36.5312C29.2087 36.535 27.9014 36.538 26.5941 36.5398C25.9872 36.5406 25.3802 36.5418 24.7732 36.5436C24.2442 36.5453 23.7153 36.5463 23.1863 36.5467C22.9061 36.5469 22.626 36.5474 22.3459 36.5486C22.0822 36.5497 21.8186 36.5501 21.555 36.5498C21.4582 36.5499 21.3614 36.5502 21.2646 36.5508C21.1325 36.5516 21.0004 36.5514 20.8683 36.551C20.83 36.5515 20.7916 36.5519 20.7521 36.5524C20.5156 36.5503 20.3692 36.5097 20.18 36.3672C20.0753 36.2292 20.0704 36.159 20.074 35.9844C20.1413 35.7691 20.2056 35.718 20.3987 35.6016C20.5755 35.5721 20.7491 35.5761 20.9279 35.5802C20.9785 35.5805 21.0291 35.5808 21.0812 35.5811C21.2422 35.5824 21.4032 35.5851 21.5643 35.5879C21.6737 35.589 21.7831 35.59 21.8925 35.5909C22.1602 35.5933 22.4279 35.5971 22.6956 35.6016C22.7497 35.4391 22.8039 35.2767 22.8597 35.1094C23.0943 34.6041 23.3289 34.0987 23.5706 33.5781Z" fill="#5956E9"/>
</svg>
