<svg width="56" height="57" viewBox="0 0 56 57" fill="none" xmlns="http://www.w3.org/2000/svg">
<circle cx="28" cy="28.3838" r="28" fill="#E9E8FF"/>
<g clip-path="url(#clip0_318_9986)">
<path d="M23.5069 15.3297C24.605 16.2569 25.2841 17.5816 25.4686 19.0041C25.5218 19.6652 25.4978 20.2984 25.3665 20.9489C25.3567 20.9981 25.3567 20.9981 25.3467 21.0483C25.3199 21.1638 25.3199 21.1638 25.2799 21.2781C25.2018 21.5212 25.2018 21.5212 25.2592 21.7613C25.3455 21.8706 25.4377 21.9662 25.5375 22.0634C25.574 22.1012 25.6105 22.1391 25.6481 22.1781C25.7709 22.3048 25.8958 22.4292 26.0208 22.5537C26.1093 22.644 26.1977 22.7344 26.2859 22.8249C26.5262 23.0705 26.7684 23.3141 27.0112 23.5573C27.2137 23.7604 27.4155 23.9643 27.6172 24.1682C28.0662 24.6218 28.5166 25.074 28.9681 25.5251C28.9952 25.5521 29.0222 25.5792 29.0501 25.6071C29.0773 25.6342 29.1044 25.6613 29.1323 25.6892C29.5714 26.128 30.0075 26.5698 30.4422 27.013C30.8889 27.4684 31.3379 27.9215 31.7892 28.3724C32.0424 28.6254 32.2946 28.8793 32.5445 29.1356C32.7798 29.3767 33.0178 29.6148 33.2582 29.8508C33.3458 29.9378 33.4324 30.0258 33.5179 30.1148C33.9271 30.5745 33.9271 30.5745 34.4729 30.8013C34.7362 30.7809 34.9705 30.7031 35.2152 30.608C36.3325 30.231 37.7976 30.59 38.8277 31.0622C39.3505 31.3233 39.814 31.6574 40.2496 32.0466C40.2835 32.076 40.3174 32.1054 40.3523 32.1357C41.3265 33.0376 41.9281 34.4689 42.0108 35.779C42.0161 35.9626 42.0176 36.1456 42.0167 36.3293C42.0164 36.3938 42.0162 36.4583 42.016 36.5248C42.0081 37.1345 41.9962 37.7221 41.6168 38.2263C41.3794 38.3959 41.1644 38.4107 40.8819 38.4175C40.5585 38.3549 40.3446 38.1112 40.1367 37.8715C40.0834 37.8109 40.03 37.7502 39.9766 37.6897C39.9486 37.6578 39.9207 37.626 39.8919 37.5932C38.4787 35.8338 38.4787 35.8338 36.5323 34.938C36.05 34.9235 35.5748 34.9871 35.109 35.1091C34.9015 35.8625 34.8161 36.6827 35.1636 37.406C35.8274 38.431 36.8846 39.2759 37.7946 40.0756C37.8424 40.118 37.8424 40.118 37.8912 40.1612C37.9504 40.2135 38.01 40.2654 38.07 40.3168C38.2724 40.496 38.3687 40.6527 38.4086 40.9194C38.4139 41.217 38.3724 41.3834 38.1715 41.6169C37.5546 42.1764 36.4487 42.04 35.6777 42.0115C34.2906 41.9235 32.9548 41.2203 32.0016 40.2234C30.909 38.9605 30.4079 37.4313 30.5152 35.7653C30.5984 34.9896 30.5984 34.9896 30.7192 34.6779C30.7616 34.5616 30.7855 34.4675 30.7886 34.3435C30.7098 34.1814 30.5896 34.0678 30.4617 33.9427C30.4252 33.9049 30.3887 33.867 30.3511 33.8281C30.2281 33.7014 30.1033 33.5767 29.9783 33.452C29.8898 33.3617 29.8015 33.2713 29.7132 33.1808C29.4728 32.9351 29.2307 32.6912 28.988 32.4477C28.8364 32.2956 28.6853 32.143 28.5342 31.9903C28.0344 31.4851 27.5335 30.9811 27.0311 30.4786C27.004 30.4515 26.9769 30.4244 26.949 30.3965C26.9219 30.3694 26.8948 30.3422 26.8668 30.3143C26.4278 29.875 25.9918 29.4329 25.557 28.9894C25.1102 28.5338 24.6612 28.0805 24.2099 27.6293C23.9567 27.3761 23.7045 27.122 23.4546 26.8655C23.2193 26.6242 22.9813 26.3859 22.7409 26.1497C22.6533 26.0626 22.5667 25.9745 22.4813 25.8854C22.0721 25.4253 22.0721 25.4253 21.5262 25.1981C21.263 25.2185 21.0286 25.2963 20.784 25.3914C19.6847 25.7624 18.1928 25.4121 17.1746 24.943C15.8666 24.2904 14.8355 23.1934 14.3277 21.82C14.098 21.1075 13.9889 20.436 13.9859 19.6872C13.9842 19.5856 13.9842 19.5856 13.9825 19.4819C13.9771 18.2016 13.9771 18.2016 14.3824 17.7732C14.637 17.5955 14.9 17.5576 15.2027 17.6091C15.4691 17.7207 15.6248 17.8552 15.8136 18.072C15.8683 18.1338 15.9229 18.1955 15.9776 18.2572C16.0063 18.2898 16.0349 18.3224 16.0644 18.356C17.4932 20.1404 17.4932 20.1404 19.4549 21.0654C19.9235 21.0798 20.3847 21.0153 20.8355 20.8903C21.036 20.1207 21.1284 19.278 20.7808 18.5388C20.1359 17.5278 19.0915 16.6965 18.1962 15.9141C18.1649 15.8865 18.1336 15.8589 18.1013 15.8305C18.017 15.7564 17.9322 15.683 17.8474 15.6096C17.6584 15.4144 17.5932 15.2289 17.5884 14.9602C17.5946 14.7115 17.6633 14.5736 17.8277 14.3825C19.2434 13.0962 22.274 14.312 23.5069 15.3297Z" fill="#5956E9"/>
<path d="M22.2051 27.998C22.346 28.0721 22.4419 28.163 22.5549 28.2754C22.6031 28.323 22.6514 28.3707 22.7011 28.4197C22.7541 28.4729 22.8071 28.5261 22.8601 28.5792C22.9162 28.635 22.9724 28.6906 23.0286 28.7463C23.181 28.8975 23.3329 29.0493 23.4848 29.2012C23.6114 29.3279 23.7383 29.4543 23.8652 29.5808C24.1645 29.879 24.4632 30.1776 24.7618 30.4765C25.0701 30.7852 25.3792 31.093 25.6887 31.4005C25.9542 31.6643 26.2192 31.9287 26.4837 32.1934C26.6418 32.3516 26.8001 32.5097 26.959 32.6672C27.1082 32.8152 27.2568 32.9638 27.4048 33.113C27.4594 33.1677 27.5142 33.2222 27.5692 33.2765C27.6441 33.3504 27.718 33.4252 27.7919 33.5001C27.8336 33.5417 27.8753 33.5834 27.9183 33.6263C27.9998 33.7419 27.9998 33.7419 28.0019 33.8486C27.9202 34.0097 27.8094 34.1171 27.6817 34.2449C27.654 34.2728 27.6264 34.3008 27.5978 34.3295C27.5048 34.4232 27.4112 34.5163 27.3176 34.6094C27.2509 34.6764 27.1841 34.7434 27.1174 34.8104C26.9359 34.9928 26.7538 35.1746 26.5716 35.3562C26.3806 35.5468 26.19 35.7378 25.9993 35.9287C25.6785 36.2498 25.3574 36.5706 25.036 36.8911C24.6659 37.2604 24.2963 37.6303 23.927 38.0005C23.6093 38.3189 23.2913 38.6371 22.973 38.9549C22.7832 39.1445 22.5935 39.3341 22.4041 39.524C22.2255 39.7031 22.0464 39.8819 21.8671 40.0603C21.8018 40.1253 21.7366 40.1905 21.6717 40.2559C20.6577 41.275 19.5902 42.0132 18.1014 42.0271C17.2595 42.0192 16.5927 41.8005 15.8592 41.3982C15.8592 41.2341 15.8592 41.2341 15.9569 41.1166C16.0031 41.0708 16.0493 41.025 16.0968 40.9778C16.1224 40.9522 16.148 40.9266 16.1743 40.9003C16.2604 40.8142 16.3472 40.7288 16.4339 40.6434C16.4956 40.5819 16.5573 40.5205 16.619 40.459C16.752 40.3265 16.8854 40.1942 17.0189 40.0621C17.23 39.8531 17.4405 39.6436 17.651 39.4339C18.136 38.9509 18.6218 38.4687 19.1076 37.9865C19.5523 37.5451 19.9969 37.1035 20.4408 36.6612C20.65 36.4529 20.8595 36.245 21.0694 36.0373C21.2 35.9079 21.3303 35.7782 21.4605 35.6483C21.5209 35.5882 21.5814 35.5283 21.6421 35.4686C21.725 35.3868 21.8074 35.3045 21.8898 35.2221C21.936 35.1763 21.9822 35.1304 22.0298 35.0832C22.2065 34.877 22.3038 34.6961 22.3328 34.4255C22.3048 34.1645 22.2352 33.9848 22.0389 33.8069C21.8188 33.6762 21.6342 33.6663 21.3826 33.6872C20.9747 33.8667 20.6876 34.1963 20.379 34.5081C20.317 34.5701 20.255 34.6321 20.193 34.6941C20.0253 34.8617 19.8581 35.0299 19.691 35.1981C19.5161 35.3741 19.3407 35.5496 19.1653 35.7251C18.8336 36.0574 18.5023 36.39 18.1712 36.7228C17.7941 37.1017 17.4165 37.4802 17.0388 37.8587C16.2623 38.637 15.4863 39.4158 14.7107 40.195C14.532 40.0234 14.4285 39.8744 14.3245 39.6482C14.2979 39.5918 14.2714 39.5354 14.244 39.4773C14.0403 38.9747 13.9705 38.4749 13.9759 37.9358C13.9764 37.876 13.9769 37.8162 13.9774 37.7546C13.9982 36.7767 14.3316 35.8855 14.9837 35.1536C15.0148 35.1182 15.0459 35.0829 15.0779 35.0465C15.3938 34.6905 15.7254 34.3513 16.0617 34.0148C16.1277 33.9484 16.1938 33.8819 16.2598 33.8154C16.4363 33.6377 16.6132 33.4603 16.7902 33.283C16.9009 33.1721 17.0116 33.0611 17.1222 32.95C17.5087 32.5622 17.8955 32.1747 18.2825 31.7875C18.6429 31.4269 19.0026 31.0655 19.362 30.7039C19.6716 30.3924 19.9817 30.0814 20.2922 29.7709C20.4773 29.5858 20.6621 29.4005 20.8464 29.2146C21.019 29.0405 21.1923 28.8671 21.3661 28.6942C21.4298 28.6306 21.4933 28.5667 21.5566 28.5026C21.6427 28.4154 21.7295 28.3291 21.8167 28.243C21.8651 28.1944 21.9136 28.1458 21.9636 28.0958C22.0935 27.9997 22.0935 27.9997 22.2051 27.998Z" fill="#5956E9"/>
<path d="M40.4588 14.0624C40.6129 14.1933 40.7596 14.3296 40.902 14.4731C40.9467 14.5176 40.9467 14.5176 40.9924 14.5631C41.055 14.6257 41.1175 14.6884 41.1799 14.7512C41.2755 14.8474 41.3716 14.943 41.4679 15.0385C41.5288 15.0995 41.5897 15.1605 41.6505 15.2216C41.6793 15.2501 41.708 15.2787 41.7377 15.3081C41.9521 15.5253 42.0089 15.6732 42.017 15.9744C42.0134 16.2958 41.9302 16.5203 41.7835 16.8023C41.7604 16.8489 41.7374 16.8954 41.7137 16.9434C41.638 17.0957 41.5607 17.247 41.4832 17.3984C41.4299 17.5047 41.3766 17.6111 41.3234 17.7176C41.212 17.9398 41.0998 18.1615 40.987 18.383C40.8426 18.6665 40.6997 18.9508 40.5574 19.2353C40.4476 19.4547 40.3371 19.6739 40.2265 19.8929C40.1736 19.9976 40.1209 20.1024 40.0683 20.2073C39.9946 20.3537 39.9203 20.4998 39.8457 20.6458C39.8242 20.6888 39.8026 20.7319 39.7805 20.7763C39.6278 21.0724 39.4795 21.3141 39.1612 21.4508C38.9871 21.4931 38.8165 21.5237 38.6389 21.5477C38.5354 21.562 38.5354 21.562 38.4298 21.5765C38.3751 21.5838 38.3751 21.5838 38.3193 21.5912C38.2043 21.6066 38.0894 21.6223 37.9744 21.6382C37.689 21.6775 37.4035 21.7161 37.1181 21.7547C36.8764 21.7875 36.6348 21.8205 36.3932 21.8538C36.2803 21.8693 36.1675 21.8843 36.0546 21.8994C35.9511 21.9137 35.9511 21.9137 35.8455 21.9282C35.7548 21.9404 35.7548 21.9404 35.6623 21.9529C35.2666 22.0253 35.0704 22.1556 34.7955 22.4372C34.7602 22.4724 34.725 22.5076 34.6887 22.5439C34.5727 22.66 34.4576 22.7768 34.3425 22.8936C34.2621 22.9745 34.1816 23.0552 34.1011 23.1359C33.8897 23.3482 33.679 23.5611 33.4684 23.7741C33.2532 23.9915 33.0374 24.2083 32.8217 24.4251C32.3987 24.8504 31.9765 25.2764 31.5547 25.7028C31.362 25.6121 31.2376 25.5077 31.0873 25.3554C31.0411 25.3089 30.9949 25.2624 30.9474 25.2144C30.8996 25.1658 30.8519 25.1172 30.8027 25.067C30.7299 24.9935 30.7299 24.9935 30.6555 24.9184C30.5357 24.7973 30.4162 24.6759 30.2969 24.5544C30.3837 24.3234 30.5566 24.1883 30.738 24.0313C30.8085 23.969 30.879 23.9067 30.9494 23.8443C31.0055 23.7947 31.0055 23.7947 31.0628 23.7441C33.3693 21.8295 33.3693 21.8295 34.3916 19.1471C34.4113 18.8078 34.4133 18.4713 34.4024 18.1316C34.3945 17.8327 34.4174 17.5454 34.4604 17.2497C34.4655 17.2084 34.4705 17.1671 34.4758 17.1246C34.5266 16.8106 34.6612 16.6225 34.8906 16.4059C35.04 16.3023 35.1972 16.2218 35.3601 16.1416C35.4061 16.118 35.4521 16.0945 35.4996 16.0703C35.6507 15.9933 35.8024 15.9177 35.9543 15.8422C36.0603 15.7888 36.1662 15.7354 36.2722 15.682C36.494 15.5704 36.7161 15.4595 36.9385 15.349C37.2225 15.2078 37.5055 15.0647 37.7883 14.921C38.0068 14.8104 38.2259 14.7008 38.4452 14.5916C38.5498 14.5393 38.6541 14.4866 38.7583 14.4336C38.9044 14.3594 39.0512 14.2868 39.1983 14.2145C39.2406 14.1926 39.2829 14.1707 39.3265 14.1481C39.684 13.9758 40.0818 13.909 40.4588 14.0624Z" fill="#5956E9"/>
</g>
<defs>
<clipPath id="clip0_318_9986">
<rect width="28" height="28" fill="white" transform="translate(14 14)"/>
</clipPath>
</defs>
</svg>
