<svg width="56" height="57" viewBox="0 0 56 57" fill="none" xmlns="http://www.w3.org/2000/svg">
<circle cx="28" cy="28.3838" r="28" fill="#E9E8FF"/>
<path d="M20.9896 15.1418C21.0323 15.1417 21.075 15.1417 21.1189 15.1416C21.2617 15.1415 21.4044 15.1418 21.5472 15.1421C21.6496 15.1421 21.752 15.1421 21.8544 15.1421C22.1323 15.1421 22.4103 15.1424 22.6882 15.1428C22.9787 15.1431 23.2692 15.1432 23.5597 15.1432C24.1097 15.1434 24.6597 15.1438 25.2098 15.1444C25.836 15.145 26.4622 15.1453 27.0885 15.1456C28.3766 15.1462 29.6648 15.1471 30.9529 15.1483C30.9532 15.2313 30.9532 15.2313 30.9535 15.3159C30.9555 15.8396 30.9587 16.3633 30.963 16.887C30.9651 17.1561 30.9669 17.4253 30.9677 17.6945C30.9686 17.9548 30.9705 18.215 30.9731 18.4753C30.9739 18.5741 30.9743 18.6728 30.9743 18.7716C30.9753 19.7625 31.1561 20.5639 31.8544 21.3084C33.4002 22.7582 36.295 22.1279 37.9529 22.1483C37.9529 25.5592 37.9529 28.9701 37.9529 32.4843C37.9168 32.4843 37.8807 32.4843 37.8435 32.4843C37.7988 32.399 37.7988 32.399 37.7532 32.3121C37.5011 31.842 37.2412 31.4407 36.8592 31.0624C36.814 31.015 36.7689 30.9677 36.7224 30.9188C36.6548 30.8546 36.6548 30.8546 36.5857 30.789C36.5525 30.7566 36.5192 30.7242 36.4849 30.6909C35.3159 29.596 33.7765 29.1987 32.2112 29.2484C30.7236 29.3327 29.3836 30.0697 28.3559 31.1233C27.2997 32.3372 26.8052 33.8962 26.906 35.4921C27.0587 37.0511 27.8148 38.4597 29.0008 39.4804C30.0984 40.3235 31.2873 40.6771 32.6482 40.7968C32.6482 40.8148 32.6482 40.8329 32.6482 40.8515C31.0838 40.8553 29.5193 40.8582 27.9548 40.86C27.2284 40.8608 26.5019 40.862 25.7755 40.8638C25.1422 40.8655 24.5089 40.8665 23.8756 40.8669C23.5403 40.8671 23.2051 40.8676 22.8699 40.8688C22.5541 40.8699 22.2383 40.8703 21.9225 40.87C21.8069 40.8701 21.6913 40.8704 21.5757 40.871C20.5171 40.8765 19.6823 40.757 18.8828 39.9993C18.1817 39.2587 18.0298 38.4355 18.032 37.4468C18.0318 37.3622 18.0316 37.2775 18.0313 37.1929C18.0306 36.9611 18.0306 36.7294 18.0308 36.4976C18.0308 36.2473 18.0302 35.997 18.0297 35.7467C18.0288 35.2567 18.0285 34.7666 18.0284 34.2765C18.0283 33.878 18.0281 33.4794 18.0278 33.0809C18.0268 31.9501 18.0263 30.8193 18.0264 29.6885C18.0264 29.6275 18.0264 29.5666 18.0264 29.5038C18.0264 29.4428 18.0264 29.3818 18.0264 29.319C18.0265 28.3308 18.0254 27.3426 18.0239 26.3544C18.0223 25.3389 18.0215 24.3233 18.0216 23.3078C18.0217 22.738 18.0214 22.1682 18.0202 21.5984C18.0192 21.1132 18.019 20.628 18.0197 20.1428C18.0201 19.8955 18.0201 19.6482 18.0191 19.4008C18.0183 19.1739 18.0184 18.947 18.0194 18.7201C18.0195 18.6385 18.0193 18.557 18.0187 18.4754C18.0121 17.5312 18.2187 16.6809 18.8841 15.9755C19.468 15.4291 20.1928 15.1386 20.9896 15.1418ZM21.656 20.7265C21.5908 20.9415 21.5769 21.0525 21.6663 21.2597C21.7981 21.4233 21.9033 21.5339 22.1161 21.5677C22.1901 21.568 22.1901 21.568 22.2657 21.5683C22.3226 21.569 22.3795 21.5696 22.4381 21.5702C22.5312 21.57 22.5312 21.57 22.6263 21.5697C22.7248 21.5704 22.7248 21.5704 22.8252 21.5711C23.0051 21.5722 23.185 21.5725 23.3649 21.5724C23.5152 21.5724 23.6655 21.5729 23.8158 21.5733C24.1705 21.5744 24.5252 21.5745 24.8799 21.5742C25.2455 21.5738 25.611 21.5751 25.9766 21.5771C26.2908 21.5788 26.6049 21.5794 26.9191 21.5792C27.1066 21.5791 27.294 21.5794 27.4815 21.5807C27.6908 21.5819 27.8999 21.5814 28.1091 21.5804C28.171 21.5811 28.2329 21.5819 28.2967 21.5826C28.6563 21.5816 28.6563 21.5816 28.9669 21.4199C29.1251 21.2368 29.1525 21.1314 29.1482 20.8905C29.0598 20.6858 28.9529 20.5705 28.7654 20.453C28.6311 20.4283 28.6311 20.4283 28.4839 20.4315C28.427 20.4308 28.3701 20.4302 28.3115 20.4296C28.2183 20.4298 28.2183 20.4298 28.1233 20.4301C28.0576 20.4296 27.992 20.4291 27.9244 20.4287C27.7445 20.4276 27.5646 20.4273 27.3847 20.4274C27.2344 20.4274 27.0841 20.4269 26.9338 20.4265C26.5791 20.4254 26.2244 20.4253 25.8697 20.4256C25.5041 20.426 25.1386 20.4247 24.773 20.4227C24.4588 20.421 24.1447 20.4204 23.8305 20.4206C23.643 20.4207 23.4555 20.4204 23.268 20.4191C23.0588 20.4179 22.8497 20.4184 22.6404 20.4194C22.5476 20.4183 22.5476 20.4183 22.4529 20.4172C22.091 20.4211 21.8977 20.4468 21.656 20.7265ZM23.406 24.2265C23.3408 24.4415 23.3269 24.5525 23.4163 24.7597C23.5731 24.9543 23.6653 25.039 23.9207 25.0677C23.9967 25.0688 24.0726 25.0689 24.1486 25.0683C24.1905 25.0687 24.2325 25.069 24.2757 25.0694C24.4163 25.0703 24.5569 25.07 24.6976 25.0697C24.7984 25.0701 24.8992 25.0706 25 25.0711C25.2738 25.0724 25.5477 25.0725 25.8216 25.0724C26.0502 25.0724 26.2788 25.0729 26.5074 25.0733C27.0467 25.0744 27.586 25.0745 28.1253 25.0742C28.6817 25.0738 29.2381 25.0751 29.7945 25.0771C30.2722 25.0788 30.7498 25.0794 31.2274 25.0792C31.5128 25.0791 31.7981 25.0794 32.0834 25.0807C32.3517 25.0819 32.62 25.0818 32.8884 25.0807C32.9868 25.0805 33.0853 25.0808 33.1837 25.0816C33.3182 25.0826 33.4526 25.0819 33.5871 25.0808C33.626 25.0814 33.6649 25.0821 33.705 25.0828C33.9106 25.0792 34.0432 25.0449 34.2026 24.9199C34.3772 24.7384 34.4027 24.6405 34.3982 24.3905C34.3102 24.1866 34.2061 24.0649 34.0154 23.953C33.8729 23.937 33.7435 23.9304 33.601 23.9315C33.5591 23.9311 33.5171 23.9308 33.4739 23.9304C33.3333 23.9295 33.1926 23.9298 33.052 23.9301C32.9512 23.9297 32.8504 23.9292 32.7496 23.9287C32.4757 23.9274 32.2019 23.9273 31.928 23.9274C31.6994 23.9274 31.4708 23.9269 31.2422 23.9265C30.7029 23.9254 30.1636 23.9253 29.6243 23.9256C29.0679 23.926 28.5115 23.9247 27.955 23.9227C27.4774 23.921 26.9998 23.9204 26.5221 23.9206C26.2368 23.9207 25.9515 23.9204 25.6662 23.9191C25.3979 23.9179 25.1296 23.918 24.8612 23.9191C24.7628 23.9193 24.6643 23.919 24.5659 23.9182C24.4314 23.9172 24.297 23.9179 24.1625 23.919C24.1236 23.9184 24.0847 23.9177 24.0446 23.917C23.7385 23.9224 23.6107 24.0136 23.406 24.2265ZM21.6321 27.1693C21.5842 27.3556 21.6073 27.4865 21.656 27.6718C21.8072 27.8596 21.9127 27.9572 22.1482 27.9999C22.3047 28.0053 22.4598 28.0077 22.6163 28.0076C22.664 28.0077 22.7117 28.0079 22.7608 28.0081C22.921 28.0085 23.0811 28.0086 23.2413 28.0087C23.356 28.009 23.4707 28.0092 23.5854 28.0095C23.8973 28.0103 24.2091 28.0106 24.521 28.0108C24.7158 28.011 24.9106 28.0112 25.1054 28.0115C25.7148 28.0122 26.3241 28.0128 26.9335 28.013C27.6371 28.0132 28.3408 28.0142 29.0444 28.0158C29.5882 28.0169 30.1319 28.0175 30.6757 28.0176C31.0005 28.0176 31.3254 28.0179 31.6502 28.0189C31.9557 28.0198 32.2613 28.0199 32.5668 28.0195C32.6789 28.0194 32.791 28.0197 32.9031 28.0202C33.0563 28.0209 33.2094 28.0206 33.3625 28.02C33.4068 28.0204 33.451 28.0209 33.4967 28.0213C33.7818 28.0188 33.9818 27.9719 34.2342 27.8358C34.3593 27.6598 34.3982 27.5559 34.3982 27.3402C34.3198 27.1099 34.1787 26.9605 33.9607 26.8515C33.8058 26.8457 33.6522 26.8434 33.4972 26.8434C33.4486 26.8432 33.4001 26.843 33.3501 26.8428C33.1864 26.8422 33.0228 26.842 32.8591 26.8418C32.7422 26.8414 32.6252 26.8411 32.5083 26.8407C32.1899 26.8397 31.8715 26.8392 31.5531 26.8387C31.3543 26.8384 31.1555 26.8381 30.9566 26.8378C30.335 26.8367 29.7133 26.8359 29.0917 26.8355C28.3734 26.8349 27.6551 26.8335 26.9368 26.8313C26.3821 26.8296 25.8274 26.8288 25.2727 26.8287C24.9411 26.8285 24.6096 26.828 24.2781 26.8267C23.9662 26.8254 23.6543 26.8252 23.3425 26.8257C23.228 26.8257 23.1135 26.8254 22.999 26.8246C22.8427 26.8237 22.6865 26.8241 22.5302 26.8248C22.4621 26.8239 22.4621 26.8239 22.3927 26.823C22.0693 26.8266 21.8421 26.9045 21.6321 27.1693ZM21.7654 29.914C21.6403 30.09 21.6014 30.1939 21.6014 30.4096C21.6798 30.6399 21.8209 30.7893 22.0389 30.8983C22.1549 30.9042 22.2712 30.9065 22.3874 30.9071C22.4411 30.9076 22.4411 30.9076 22.4958 30.908C22.6144 30.9088 22.7329 30.9091 22.8515 30.9094C22.9339 30.9098 23.0163 30.9101 23.0988 30.9104C23.2718 30.911 23.4449 30.9113 23.6179 30.9115C23.8392 30.9118 24.0604 30.9131 24.2817 30.9146C24.4521 30.9157 24.6225 30.9159 24.7929 30.916C24.8745 30.9162 24.956 30.9166 25.0376 30.9174C25.152 30.9183 25.2663 30.9182 25.3807 30.9178C25.4782 30.9181 25.4782 30.9181 25.5777 30.9184C25.7816 30.8957 25.9118 30.8418 26.0857 30.7343C26.2206 30.5319 26.2318 30.3675 26.1951 30.1327C26.0915 29.9494 26.0212 29.8775 25.8262 29.7983C25.6413 29.748 25.4871 29.7357 25.2958 29.7349C25.227 29.7344 25.1581 29.7338 25.0872 29.7333C25.0128 29.7333 24.9384 29.7334 24.864 29.7335C24.7869 29.7332 24.7098 29.733 24.6328 29.7327C24.4716 29.7323 24.3104 29.7323 24.1491 29.7326C23.9433 29.733 23.7375 29.732 23.5317 29.7308C23.3726 29.7299 23.2135 29.7299 23.0544 29.7301C22.9786 29.73 22.9027 29.7298 22.8269 29.7292C22.2716 29.7181 22.2716 29.7181 21.7654 29.914ZM21.656 32.9765C21.5908 33.1915 21.5769 33.3025 21.6663 33.5097C21.7955 33.6701 21.9019 33.7832 22.1104 33.8176C22.1567 33.8177 22.203 33.8179 22.2506 33.818C22.3034 33.8185 22.3561 33.819 22.4105 33.8196C22.4954 33.8191 22.4954 33.8191 22.5821 33.8186C22.6699 33.8188 22.6699 33.8188 22.7594 33.819C22.8831 33.8192 23.0068 33.8188 23.1305 33.8182C23.3197 33.8173 23.5088 33.8182 23.698 33.8192C23.8182 33.8191 23.9384 33.8189 24.0587 33.8186C24.1152 33.8189 24.1717 33.8192 24.2299 33.8196C24.6112 33.8182 24.6112 33.8182 24.9373 33.6327C25.0646 33.4569 25.0684 33.2987 25.0467 33.0858C24.9522 32.8781 24.8739 32.7871 24.6639 32.703C24.536 32.6855 24.536 32.6855 24.3982 32.6863C24.3457 32.6854 24.2931 32.6845 24.2389 32.6836C24.1542 32.6832 24.1542 32.6832 24.0678 32.6827C24.0095 32.6822 23.9511 32.6817 23.8909 32.6812C23.7674 32.6804 23.644 32.68 23.5205 32.6798C23.3319 32.6791 23.1434 32.6764 22.9549 32.6737C22.8348 32.6731 22.7148 32.6727 22.5947 32.6725C22.5385 32.6714 22.4822 32.6703 22.4243 32.6692C22.0713 32.6715 21.8935 32.7074 21.656 32.9765ZM21.6321 35.9193C21.5842 36.1056 21.6073 36.2365 21.656 36.4218C21.807 36.6094 21.9125 36.7088 22.1482 36.7499C22.2447 36.7554 22.3414 36.758 22.4381 36.7587C22.5249 36.7595 22.5249 36.7595 22.6134 36.7603C22.6757 36.7605 22.738 36.7608 22.8021 36.761C22.8986 36.7615 22.8986 36.7615 22.9971 36.762C23.1332 36.7625 23.2693 36.7628 23.4054 36.763C23.6132 36.7636 23.8209 36.7653 24.0286 36.767C24.161 36.7673 24.2933 36.7676 24.4257 36.7678C24.5186 36.7689 24.5186 36.7689 24.6133 36.7699C24.9452 36.769 25.1943 36.754 25.4842 36.5858C25.6093 36.4098 25.6482 36.3059 25.6482 36.0902C25.5698 35.8599 25.4287 35.7105 25.2107 35.6015C25.1114 35.5954 25.0119 35.5928 24.9124 35.5918C24.8499 35.5911 24.7875 35.5904 24.7232 35.5897C24.6554 35.5893 24.5876 35.5888 24.5177 35.5884C24.4483 35.588 24.3788 35.5875 24.3072 35.5871C24.1599 35.5863 24.0126 35.5857 23.8653 35.5853C23.6771 35.5847 23.489 35.5828 23.3008 35.5807C23.1209 35.5789 22.9409 35.5786 22.7609 35.5782C22.6936 35.5772 22.6262 35.5763 22.5568 35.5753C22.1532 35.5763 21.8946 35.5884 21.6321 35.9193Z" fill="#5956E9"/>
<path d="M35.484 31.1891C36.5048 31.9882 37.1827 33.1024 37.3511 34.398C37.413 35.3905 37.2991 36.2478 36.8576 37.1402C36.7891 37.2878 36.7891 37.2878 36.8409 37.4002C36.9291 37.5397 37.0307 37.6441 37.1484 37.7598C37.197 37.8078 37.2456 37.8558 37.2956 37.9053C37.3215 37.9307 37.3475 37.9561 37.3742 37.9823C37.4559 38.0623 37.5372 38.1427 37.6184 38.2232C37.8493 38.4519 38.0809 38.6799 38.3126 38.9078C38.4546 39.0474 38.5961 39.1874 38.7374 39.3277C38.7911 39.3808 38.845 39.4337 38.899 39.4865C39.3111 39.8892 39.6237 40.208 39.6565 40.8049C39.6368 41.164 39.5086 41.4571 39.2412 41.6987C38.9988 41.8923 38.7636 41.9613 38.4551 41.9653C38.4017 41.9669 38.3484 41.9684 38.2934 41.97C37.7547 41.8932 37.4241 41.4999 37.0623 41.1305C37.0041 41.0719 36.9459 41.0134 36.8876 40.9549C36.7353 40.8018 36.5838 40.6481 36.4323 40.4942C36.2773 40.3369 36.1216 40.1802 35.966 40.0235C35.6614 39.7166 35.3576 39.4091 35.0542 39.1011C34.9913 39.1275 34.9284 39.154 34.8636 39.1812C34.7797 39.2162 34.6959 39.2511 34.612 39.2861C34.5707 39.3035 34.5294 39.3209 34.4868 39.3388C33.3554 39.8089 32.1096 39.8346 30.9595 39.4121C30.3755 39.1673 29.8958 38.865 29.4214 38.4448C29.3866 38.4146 29.3517 38.3843 29.3159 38.3532C28.4886 37.585 27.9762 36.3873 27.9337 35.2697C27.9082 33.8518 28.3209 32.7012 29.312 31.6636C29.3416 31.63 29.3711 31.5963 29.4015 31.5617C30.9468 29.8685 33.7177 29.9385 35.484 31.1891ZM30.5151 33.0308C29.8835 33.7908 29.7333 34.5882 29.8042 35.5464C29.9368 36.2512 30.3598 36.9076 30.9356 37.3306C31.6091 37.7799 32.3277 38.0004 33.1369 37.8725C33.9493 37.6935 34.6173 37.2677 35.0959 36.5829C35.5225 35.91 35.6619 35.1514 35.5086 34.3691C35.2859 33.5855 34.8785 32.9595 34.1826 32.5181C32.977 31.8478 31.4781 31.9807 30.5151 33.0308Z" fill="#5956E9"/>
<path d="M32.0468 15.2578C32.29 15.3254 32.4364 15.4014 32.6146 15.5795C32.6595 15.6238 32.7043 15.6681 32.7505 15.7138C32.7987 15.7625 32.8469 15.8112 32.8965 15.8614C32.9485 15.9131 33.0005 15.9649 33.0526 16.0166C33.1936 16.1568 33.3338 16.2976 33.4739 16.4386C33.6209 16.5863 33.7683 16.7335 33.9158 16.8807C34.1632 17.128 34.4103 17.3758 34.657 17.6238C34.942 17.9103 35.2276 18.196 35.5137 18.4814C35.7892 18.7563 36.0642 19.0317 36.339 19.3073C36.4558 19.4244 36.5728 19.5413 36.6898 19.6581C36.8278 19.7958 36.9653 19.9339 37.1026 20.0723C37.1768 20.147 37.2515 20.2213 37.3262 20.2956C37.545 20.5172 37.7306 20.7073 37.8436 21C37.2755 21.0051 36.7074 21.009 36.1393 21.0113C35.8754 21.0125 35.6116 21.014 35.3478 21.0165C35.0928 21.0189 34.8379 21.0202 34.5829 21.0208C34.486 21.0212 34.389 21.0219 34.2921 21.0231C33.6054 21.0312 33.0513 21.0033 32.5255 20.5072C32.1669 20.1007 32.0289 19.6247 32.0343 19.0884C32.0343 19.0259 32.0343 19.0259 32.0343 18.9622C32.0344 18.8258 32.0352 18.6894 32.0361 18.5529C32.0363 18.4579 32.0364 18.3628 32.0365 18.2677C32.037 18.0184 32.038 17.7691 32.0392 17.5198C32.0404 17.265 32.0409 17.0102 32.0414 16.7554C32.0426 16.2562 32.0444 15.757 32.0468 15.2578Z" fill="#5956E9"/>
</svg>
