<svg width="56" height="57" viewBox="0 0 56 57" fill="none" xmlns="http://www.w3.org/2000/svg">
<circle cx="28" cy="28.3838" r="28" fill="#E9E8FF"/>
<path d="M37.8879 25.0216C39.3601 26.4299 40.2432 28.3495 40.5238 30.3513C40.531 30.4018 40.5382 30.4522 40.5456 30.5042C40.8158 32.8555 40.1102 35.2671 38.646 37.1154C37.1289 39.001 35.0465 40.1871 32.6488 40.5232C32.5983 40.5303 32.5478 40.5375 32.4958 40.5449C30.5958 40.7633 28.7417 40.3238 27.0707 39.4294C27.0127 39.3985 26.9546 39.3675 26.8949 39.3356C26.2047 38.9502 25.615 38.4433 25.0472 37.8982C25.0168 37.8691 24.9864 37.84 24.9551 37.81C23.5594 36.4491 22.7445 34.5573 22.4769 32.6482C22.4697 32.5977 22.4625 32.5472 22.4551 32.4952C22.185 30.144 22.8905 27.7323 24.3547 25.884C25.8718 23.9985 27.9542 22.8124 30.3519 22.4763C30.4024 22.4691 30.4529 22.4619 30.5049 22.4545C33.282 22.1354 35.8572 23.1778 37.8879 25.0216ZM28.7116 28.1916C28.6813 28.2217 28.651 28.2518 28.6198 28.2828C28.5206 28.3815 28.4223 28.481 28.324 28.5806C28.255 28.6497 28.1859 28.7189 28.1168 28.7879C27.9724 28.9325 27.8284 29.0773 27.6847 29.2225C27.5006 29.4085 27.3158 29.5938 27.1307 29.7788C26.9882 29.9213 26.8459 30.0641 26.7038 30.2071C26.6357 30.2755 26.5676 30.3438 26.4994 30.4121C26.4042 30.5075 26.3094 30.6033 26.2147 30.6991C26.1725 30.7413 26.1725 30.7413 26.1294 30.7843C25.9064 31.0114 25.7973 31.1732 25.7924 31.4929C25.7908 31.5379 25.7893 31.5828 25.7877 31.6292C25.8443 31.9527 26.1019 32.1877 26.3273 32.412C26.3562 32.4412 26.385 32.4703 26.4147 32.5003C26.5094 32.5956 26.6044 32.6906 26.6994 32.7855C26.7657 32.8521 26.8321 32.9186 26.8984 32.9852C27.0371 33.1244 27.1761 33.2633 27.3152 33.4021C27.493 33.5796 27.6702 33.7578 27.8473 33.9361C27.984 34.0736 28.1211 34.2108 28.2583 34.3478C28.3238 34.4133 28.3892 34.479 28.4544 34.5447C28.5457 34.6367 28.6376 34.7282 28.7295 34.8196C28.7561 34.8466 28.7827 34.8736 28.8101 34.9014C29.0066 35.0949 29.2139 35.2591 29.4957 35.2849C29.7767 35.2488 29.9716 35.1958 30.1879 34.9997C30.3469 34.7868 30.4261 34.5835 30.4169 34.3161C30.3799 34.1216 30.3202 34.0128 30.1872 33.867C30.1527 33.8291 30.1181 33.7912 30.0825 33.7521C29.8842 33.5429 29.6816 33.3384 29.4771 33.1352C29.4316 33.0897 29.386 33.0442 29.339 32.9973C29.1948 32.8535 29.0505 32.7098 28.9061 32.5661C28.8077 32.468 28.7094 32.3699 28.611 32.2717C28.3711 32.0325 28.1311 31.7934 27.891 31.5544C27.9717 31.3668 28.0764 31.2474 28.2219 31.1052C28.2675 31.0603 28.3131 31.0154 28.3601 30.9691C28.4095 30.921 28.4588 30.8729 28.5096 30.8234C28.5869 30.7472 28.6642 30.6709 28.7414 30.5946C28.9317 30.4069 29.1225 30.2197 29.3137 30.0328C29.421 29.9279 29.528 29.8226 29.6347 29.7171C29.7352 29.6178 29.8361 29.5189 29.9375 29.4205C29.9831 29.3753 30.0287 29.33 30.0757 29.2834C30.1159 29.244 30.1562 29.2046 30.1976 29.164C30.3347 28.9917 30.4009 28.8147 30.413 28.5944C30.3788 28.3293 30.3153 28.1505 30.1332 27.945C29.586 27.5764 29.1507 27.7428 28.7116 28.1916ZM32.7342 28.0852C32.5872 28.3145 32.5759 28.4969 32.5941 28.7653C32.6943 29.0015 32.8112 29.1667 32.9927 29.3466C33.0397 29.3936 33.0868 29.4407 33.1353 29.4892C33.1859 29.5389 33.2365 29.5887 33.2886 29.6399C33.3411 29.6921 33.3936 29.7444 33.4461 29.7967C33.5835 29.9335 33.7215 30.0699 33.8595 30.2061C34.0006 30.3455 34.1412 30.4853 34.2818 30.6251C34.5574 30.8989 34.8334 31.1721 35.1097 31.445C35.029 31.6326 34.9241 31.7526 34.7788 31.8951C34.7332 31.9402 34.6876 31.9853 34.6406 32.0317C34.5912 32.08 34.5419 32.1283 34.4911 32.178C34.4138 32.2544 34.3366 32.3308 34.2593 32.4073C34.069 32.5955 33.8781 32.7831 33.6871 32.9707C33.5798 33.0761 33.4728 33.1816 33.366 33.2875C33.2654 33.387 33.1645 33.4863 33.0633 33.5851C32.9948 33.653 32.9948 33.653 32.925 33.7222C32.8848 33.7618 32.8446 33.8013 32.8031 33.842C32.648 34.0268 32.5987 34.1836 32.577 34.4221C32.6032 34.7208 32.6986 34.8811 32.9017 35.0988C33.0714 35.2282 33.231 35.2637 33.4396 35.2922C33.9831 35.2178 34.346 34.7553 34.7109 34.3866C34.7773 34.3202 34.8437 34.2539 34.9102 34.1876C35.0488 34.049 35.1871 33.9101 35.3251 33.7708C35.5015 33.5928 35.6789 33.4156 35.8565 33.2387C35.9936 33.102 36.1302 32.9649 36.2668 32.8277C36.332 32.7622 36.3973 32.6969 36.4628 32.6316C36.5543 32.5403 36.6452 32.4485 36.736 32.3565C36.7629 32.3299 36.7897 32.3033 36.8174 32.2759C37.0753 32.0123 37.2032 31.7741 37.215 31.4025C37.1407 31.0698 36.9099 30.8147 36.6742 30.5812C36.6455 30.5521 36.6167 30.5229 36.5871 30.4929C36.4929 30.3977 36.3981 30.3031 36.3032 30.2086C36.237 30.1421 36.1708 30.0756 36.1046 30.0091C35.9662 29.8702 35.8275 29.7316 35.6886 29.5932C35.511 29.4163 35.3344 29.2385 35.1579 29.0605C35.0215 28.9231 34.8847 28.7862 34.7476 28.6495C34.6823 28.5842 34.6171 28.5187 34.5521 28.453C34.4611 28.3611 34.3693 28.27 34.2774 28.179C34.251 28.1521 34.2246 28.1251 34.1974 28.0974C33.9769 27.8816 33.7504 27.7571 33.4452 27.7024C33.1597 27.7511 32.933 27.8762 32.7342 28.0852Z" fill="#5956E9"/>
<path d="M33.9613 17.2264C33.997 17.2533 34.0327 17.2801 34.0694 17.3078C34.41 17.5766 34.6094 17.9035 34.7269 18.3202C34.7816 18.8272 34.7285 19.2277 34.4219 19.6391C33.12 21.1931 30.6498 21.4818 28.766 21.7108C28.7019 21.719 28.6378 21.7273 28.5717 21.7358C26.2565 22.0232 23.7497 22.0223 21.4379 21.7108C21.3617 21.701 21.2856 21.6912 21.2095 21.6815C16.9593 21.1311 16.9593 21.1311 15.7235 19.6453C15.4793 19.2841 15.3581 18.8629 15.4223 18.4295C15.5748 17.77 16.0015 17.3166 16.557 16.953C20.2504 14.7879 25.9762 15.133 33.9613 17.2264Z" fill="#5956E9"/>
<path d="M15.4214 21.6016C15.4828 21.6351 15.4828 21.6351 15.5454 21.6694C15.6262 21.7135 15.6262 21.7135 15.7087 21.7586C15.762 21.7878 15.8153 21.8169 15.8703 21.8469C18.4024 23.2193 21.3485 23.4237 24.1714 23.5703C24.0228 23.747 23.8739 23.921 23.7145 24.0881C22.5983 25.2621 21.8272 26.6495 21.273 28.1641C19.4919 28.0447 17.4907 27.8398 15.8589 27.0703C15.8221 27.0537 15.7853 27.0371 15.7473 27.0201C15.4457 26.8631 15.4457 26.8631 15.3818 26.689C15.3674 26.5538 15.3672 26.4248 15.3717 26.2889C15.3717 26.2382 15.3716 26.1875 15.3715 26.1352C15.3718 25.968 15.3752 25.8009 15.3787 25.6337C15.3795 25.5176 15.3801 25.4015 15.3806 25.2854C15.3822 24.9802 15.3865 24.675 15.3914 24.3698C15.3958 24.0582 15.3978 23.7466 15.4 23.435C15.4047 22.8238 15.4122 22.2127 15.4214 21.6016Z" fill="#5956E9"/>
<path d="M15.4223 28.6562C15.4786 28.6747 15.4786 28.6747 15.5361 28.6936C16.5216 29.0198 16.5216 29.0198 17.5277 29.2715C17.5883 29.2845 17.6488 29.2975 17.7112 29.3109C18.7441 29.5276 19.7904 29.6676 20.8363 29.8047C20.8324 29.854 20.8284 29.9034 20.8244 29.9542C20.6918 31.7698 20.7958 33.5452 21.4445 35.2604C21.5046 35.4194 21.5473 35.5392 21.5473 35.7109C17.0647 35.1492 17.0647 35.1492 15.7504 33.6875C15.4861 33.3147 15.4138 33.0081 15.4161 32.5551C15.4161 32.4919 15.4161 32.4919 15.416 32.4273C15.4161 32.2883 15.4165 32.1492 15.4169 32.0101C15.417 31.9136 15.4171 31.817 15.4172 31.7205C15.4174 31.4666 15.4179 31.2127 15.4185 30.9588C15.4191 30.6996 15.4193 30.4405 15.4196 30.1813C15.4202 29.673 15.4211 29.1646 15.4223 28.6562Z" fill="#5956E9"/>
</svg>
