<svg width="56" height="57" viewBox="0 0 56 57" fill="none" xmlns="http://www.w3.org/2000/svg">
<circle cx="28" cy="28.3838" r="28" fill="#E9E8FF"/>
<g clip-path="url(#clip0_298_9736)">
<path d="M24.6582 13.9892C24.703 13.9888 24.7477 13.9884 24.7938 13.988C26.6677 13.9755 26.6677 13.9755 27.5079 14.1643C27.5825 14.1806 27.5825 14.1806 27.6585 14.1973C29.5994 14.6332 31.3954 15.5518 32.8579 16.8996C32.9624 16.995 33.0691 17.0857 33.1783 17.1756C33.3526 17.3237 33.5 17.4881 33.6477 17.6624C33.7065 17.7316 33.7665 17.7997 33.8284 17.8662C35.1987 19.3493 36.0609 21.3298 36.422 23.2971C36.4394 23.3866 36.4394 23.3866 36.4572 23.4779C36.9315 26.269 36.2488 29.3507 34.6173 31.6643C34.478 31.8543 34.334 32.0399 34.1868 32.2238C34.0544 32.3901 34.0544 32.3901 33.9064 32.6487C34.1229 32.8653 34.3395 33.0818 34.5626 33.305C34.7828 33.1949 34.8902 33.0959 35.0582 32.9198C35.1113 32.865 35.1644 32.8103 35.2176 32.7556C35.3007 32.6695 35.3835 32.5831 35.466 32.4964C35.5459 32.4124 35.6267 32.3294 35.7076 32.2465C35.7555 32.1965 35.8034 32.1465 35.8527 32.095C35.9845 31.9925 35.9845 31.9925 36.0887 32.0013C36.2313 32.0584 36.3089 32.1321 36.4176 32.2407C36.4596 32.2822 36.5016 32.3238 36.5449 32.3666C36.6132 32.4354 36.6132 32.4354 36.683 32.5057C36.7556 32.5778 36.7556 32.5778 36.8297 32.6515C36.9624 32.7836 37.0948 32.9161 37.227 33.0488C37.3658 33.1881 37.505 33.3269 37.6441 33.4658C37.8781 33.6995 38.1118 33.9335 38.3453 34.1678C38.6141 34.4375 38.8834 34.7065 39.1531 34.9753C39.3852 35.2067 39.6171 35.4384 39.8486 35.6704C39.9866 35.8087 40.1248 35.9468 40.2631 36.0847C40.4181 36.239 40.5723 36.394 40.7264 36.5491C40.7716 36.5939 40.8167 36.6387 40.8632 36.6849C41.2527 37.0786 41.6331 37.5086 41.8326 38.032C41.8534 38.0849 41.8742 38.1379 41.8957 38.1924C42.1077 38.8049 42.0927 39.6207 41.8506 40.2191C41.4166 41.1003 40.8563 41.614 39.922 41.9456C39.2961 42.1266 38.4781 42.0642 37.8986 41.7815C37.8313 41.7496 37.8313 41.7496 37.7627 41.717C36.9183 41.2625 36.2252 40.393 35.5525 39.7239C35.5018 39.6735 35.4511 39.6231 35.3989 39.5711C35.1862 39.3597 34.9737 39.1481 34.7613 38.9363C34.4587 38.6347 34.1557 38.3335 33.852 38.0329C33.6371 37.8201 33.4228 37.6069 33.2088 37.3932C33.0814 37.266 32.9538 37.1391 32.8257 37.0126C32.6836 36.8723 32.5425 36.7312 32.4015 36.5898C32.359 36.5482 32.3164 36.5065 32.2726 36.4636C32.2156 36.4059 32.2156 36.4059 32.1574 36.3471C32.1073 36.2972 32.1073 36.2972 32.0562 36.2464C31.9923 36.1487 31.9923 36.1487 32.0017 36.0357C32.0729 35.8694 32.1997 35.7573 32.3275 35.6334C32.3553 35.6058 32.3832 35.5782 32.4118 35.5498C32.5006 35.4619 32.59 35.3746 32.6793 35.2874C32.7397 35.2278 32.8 35.1682 32.8604 35.1086C33.0081 34.9627 33.1563 34.8173 33.3048 34.6721C33.2073 34.4616 33.0819 34.3287 32.9152 34.1663C32.8654 34.1175 32.8156 34.0687 32.7643 34.0185C32.7261 33.9815 32.6879 33.9446 32.6486 33.9065C32.4422 34.0412 32.2435 34.1817 32.0473 34.3306C29.6769 36.1182 26.662 36.872 23.7217 36.4903C22.7057 36.3421 21.7202 36.0735 20.7814 35.6565C20.7415 35.6391 20.7016 35.6217 20.6606 35.6038C19.5242 35.104 18.382 34.4116 17.5268 33.4996C17.4404 33.405 17.4404 33.405 17.3053 33.305C17.1084 33.1434 16.9529 32.9524 16.7892 32.7581C16.7467 32.7088 16.7042 32.6595 16.6604 32.6088C15.791 31.5885 15.1402 30.4513 14.6564 29.2034C14.6404 29.1623 14.6244 29.1213 14.6079 29.079C14.2226 28.0679 13.9953 26.9565 13.989 25.8734C13.9886 25.8287 13.9882 25.7839 13.9878 25.7378C13.9869 25.5941 13.9865 25.4505 13.9864 25.3069C13.9864 25.2578 13.9864 25.2088 13.9863 25.1582C13.9872 24.4353 14.0059 23.732 14.1642 23.0237C14.1733 22.9817 14.1824 22.9396 14.1917 22.8963C14.6463 20.8566 15.624 19.0154 17.0626 17.5003C17.0903 17.4705 17.1179 17.4408 17.1464 17.4102C19.033 15.3923 21.8706 14.0053 24.6582 13.9892ZM19.086 18.8128C19.0344 18.8609 18.9827 18.9091 18.9295 18.9587C18.2064 19.6462 17.6796 20.4436 17.2267 21.3284C17.1993 21.3816 17.1718 21.4348 17.1436 21.4897C16.1169 23.618 16.0706 26.0635 16.8212 28.2783C17.5915 30.4242 19.1893 32.2219 21.2189 33.2503C21.2534 33.2679 21.2879 33.2855 21.3235 33.3036C23.3888 34.3434 25.8233 34.5141 28.0249 33.8088C30.2919 33.0276 32.2289 31.419 33.3037 29.2598C34.1898 27.4013 34.4739 25.3132 34.0157 23.2971C33.9999 23.2276 33.9842 23.1581 33.9679 23.0865C33.5997 21.6046 32.8263 20.146 31.7189 19.0862C31.4454 18.8128 31.4454 18.8128 31.364 18.7218C30.8007 18.1147 30.0406 17.6634 29.3126 17.2815C29.2514 17.2491 29.1901 17.2167 29.127 17.1833C25.797 15.5238 21.747 16.2921 19.086 18.8128Z" fill="#5956E9"/>
<path d="M29.9836 19.6041C31.3567 20.8153 32.2143 22.3134 32.539 24.1171C32.5484 24.1672 32.5578 24.2174 32.5675 24.2691C32.6966 25.1376 32.6649 26.1683 32.4296 27.0155C32.4176 27.0593 32.4055 27.1032 32.3931 27.1483C32.0787 28.252 31.5664 29.1905 30.8437 30.078C30.7886 30.1463 30.7886 30.1463 30.7324 30.216C30.5183 30.4706 30.2827 30.6905 30.0234 30.8983C29.9961 30.9203 29.9687 30.9422 29.9406 30.9648C29.0593 31.6629 28.0987 32.1316 27.0156 32.4296C26.9588 32.4453 26.9588 32.4453 26.9009 32.4614C25.8612 32.7336 24.6031 32.7093 23.5703 32.4296C23.4962 32.4114 23.4221 32.3933 23.3481 32.3751C22.4808 32.1513 21.6642 31.7603 20.9453 31.2265C20.9015 31.1949 20.8578 31.1633 20.8128 31.1308C19.2632 29.9559 18.3029 28.2663 17.9921 26.3593C17.982 26.3023 17.972 26.2453 17.9616 26.1867C17.7423 24.2776 18.2391 22.3001 19.4243 20.7743C20.5229 19.4073 22.05 18.3832 23.789 18.0468C23.8419 18.0356 23.8947 18.0245 23.9492 18.013C26.0467 17.6387 28.3561 18.2149 29.9836 19.6041ZM25.3203 19.1952C25.3203 19.7186 25.3203 20.2419 25.3203 20.7811C25.4759 20.8026 25.6316 20.824 25.7919 20.8461C27.0442 21.0371 28.141 21.6287 28.8997 22.6563C29.4589 23.4494 29.6503 24.3186 29.7499 25.2655C30.2733 25.2655 30.7967 25.2655 31.3359 25.2655C31.3432 24.6192 31.3432 24.6192 31.2538 23.9975C31.2396 23.9326 31.2396 23.9326 31.225 23.8665C30.8336 22.217 29.7639 20.8699 28.3354 19.9871C27.7006 19.6101 27.0233 19.4037 26.3046 19.2499C26.2556 19.239 26.2066 19.228 26.1562 19.2168C25.8794 19.1835 25.599 19.1952 25.3203 19.1952Z" fill="#5956E9"/>
</g>
<defs>
<clipPath id="clip0_298_9736">
<rect width="28" height="28" fill="white" transform="translate(14 14)"/>
</clipPath>
</defs>
</svg>
