<svg width="56" height="57" viewBox="0 0 56 57" fill="none" xmlns="http://www.w3.org/2000/svg">
<circle cx="28" cy="28.3838" r="28" fill="#E9E8FF"/>
<path d="M39.9385 15.9859C40.1687 16.2161 40.298 16.4776 40.308 16.8042C40.1434 21.6866 38.1796 26.3925 34.8658 29.9797C34.7579 30.0979 34.6529 30.2175 34.5486 30.3388C34.3277 30.5919 34.0925 30.8291 33.8545 31.066C33.8129 31.1077 33.7714 31.1495 33.7286 31.1925C33.4684 31.4522 33.2004 31.6983 32.9214 31.9375C32.8556 31.9953 32.7899 32.0532 32.7242 32.1112C32.2922 32.4905 31.8527 32.8537 31.3901 33.1953C31.3353 33.2359 31.3353 33.2359 31.2793 33.2773C29.7367 34.4142 28.1095 35.4147 26.3965 36.2749C26.3462 36.3002 26.296 36.3255 26.2442 36.3515C25.8326 36.5551 25.5287 36.6441 25.0635 36.5415C24.3368 36.2377 23.6841 35.3449 23.136 34.7999C23.0874 34.7516 23.0389 34.7034 22.9889 34.6537C22.785 34.451 22.5812 34.2482 22.3776 34.0452C22.0884 33.7569 21.7987 33.469 21.5084 33.1818C21.2778 32.9536 21.0479 32.7246 20.8183 32.4953C20.7212 32.3986 20.6239 32.3021 20.5264 32.2059C20.39 32.0713 20.2546 31.9358 20.1193 31.8002C20.0594 31.7416 20.0594 31.7416 19.9983 31.6819C19.6967 31.3766 19.4179 31.013 19.3828 30.5703C19.5943 27.5998 23.2968 23.7911 25.3062 21.7725C25.3443 21.7341 25.3824 21.6958 25.4217 21.6562C25.6705 21.4081 25.9283 21.1742 26.1948 20.9453C26.2547 20.8928 26.3145 20.8402 26.3743 20.7875C27.5358 19.7724 28.8212 18.911 30.1727 18.1697C30.2812 18.1099 30.3889 18.0489 30.4963 17.9871C32.4278 16.9062 37.9754 14.4833 39.9385 15.9859ZM30.3169 21.024C29.7133 21.723 29.4297 22.617 29.4876 23.5342C29.604 24.4399 30.0273 25.2289 30.7339 25.8125C31.5049 26.3713 32.3338 26.6072 33.2837 26.4893C34.1301 26.3342 34.9213 25.8748 35.4319 25.1781C35.6443 24.8586 35.8097 24.5364 35.9292 24.1719C35.9415 24.1353 35.9539 24.0987 35.9666 24.061C36.1957 23.2379 36.0381 22.3395 35.644 21.5988C35.214 20.8885 34.5644 20.3099 33.7464 20.0979C32.4706 19.8044 31.2508 20.0709 30.3169 21.024Z" fill="#5956E9"/>
<path d="M34.9455 31.6641C35.0549 31.7188 35.0549 31.7188 35.0966 31.8202C35.1094 31.8636 35.1222 31.907 35.1354 31.9518C35.1496 31.9995 35.1638 32.0472 35.1785 32.0963C35.193 32.1466 35.2075 32.1968 35.2224 32.2485C35.2371 32.2977 35.2518 32.3469 35.2669 32.3975C35.5485 33.3548 35.5365 34.2493 35.0615 35.1421C34.4842 36.1764 33.6625 37.083 32.8674 37.9531C32.8178 38.0079 32.7681 38.0626 32.7185 38.1174C32.4612 38.4006 32.2 38.6778 31.9272 38.9463C31.8314 39.0437 31.7426 39.1444 31.654 39.2485C31.4713 39.46 31.2789 39.6609 31.0832 39.8604C31.0531 39.8916 31.023 39.9229 30.992 39.9551C30.8272 40.1213 30.6933 40.2425 30.4612 40.3047C30.2601 40.3005 30.1609 40.2711 30.0001 40.1494C29.7895 39.9284 29.7241 39.632 29.6353 39.347C29.6055 39.2549 29.6055 39.2549 29.5751 39.1608C29.5119 38.9647 29.4499 38.7683 29.3879 38.5718C29.3458 38.4406 29.3037 38.3095 29.2614 38.1784C29.1663 37.8823 29.0714 37.5861 28.979 37.2891C28.9465 37.1856 28.913 37.0824 28.8785 36.9795C28.8552 36.9079 28.8552 36.9079 28.8313 36.8348C28.8174 36.7933 28.8034 36.7517 28.789 36.7089C28.7607 36.5589 28.7748 36.4577 28.8205 36.3125C28.9607 36.2112 28.9607 36.2112 29.1487 36.1143C29.219 36.0765 29.2892 36.0386 29.3593 36.0004C29.3964 35.9803 29.4335 35.9601 29.4717 35.9394C29.8313 35.7371 30.1724 35.5017 30.5158 35.2734C30.5515 35.2498 30.5871 35.2262 30.6239 35.2019C31.4978 34.6209 32.341 33.9841 33.1408 33.3047C33.1725 33.2779 33.2042 33.251 33.2369 33.2234C33.6195 32.8986 33.9936 32.5715 34.3438 32.2114C34.5175 32.0372 34.7042 31.8788 34.8908 31.7188C34.9089 31.7007 34.9269 31.6827 34.9455 31.6641Z" fill="#5956E9"/>
<path d="M24.336 21.0001C24.1363 21.2376 23.9307 21.4689 23.7207 21.6973C23.6949 21.7255 23.669 21.7537 23.6423 21.7827C23.5161 21.92 23.3897 22.057 23.2632 22.194C22.9514 22.5335 22.6536 22.8811 22.3672 23.2422C22.339 23.2777 22.3108 23.3132 22.2817 23.3497C21.3838 24.4821 20.5696 25.6681 19.8356 26.9133C19.7709 27.0221 19.7031 27.1291 19.6328 27.2344C19.2451 27.1987 18.886 27.0745 18.5165 26.9567C18.4453 26.9342 18.3742 26.9116 18.303 26.889C18.1545 26.8418 18.006 26.7943 17.8576 26.7467C17.6681 26.6859 17.4782 26.6262 17.2882 26.5667C17.1413 26.5206 16.9947 26.4736 16.8482 26.4265C16.7445 26.3934 16.6405 26.361 16.5366 26.3287C15.9457 26.1364 15.9457 26.1364 15.75 25.8672C15.6864 25.6803 15.6797 25.583 15.746 25.3968C15.9126 25.1239 16.1338 24.9173 16.3618 24.6949C16.407 24.65 16.4522 24.6051 16.4987 24.5589C16.739 24.3216 16.9844 24.0935 17.2403 23.8731C17.3695 23.7597 17.4896 23.6388 17.6094 23.5157C17.7978 23.3256 17.9884 23.1431 18.192 22.9694C18.2929 22.8829 18.3924 22.7953 18.4915 22.7067C20.2423 21.1493 21.9867 19.9149 24.336 21.0001Z" fill="#5956E9"/>
<path d="M18.2109 33.8516C18.474 34.071 18.7221 34.3003 18.9635 34.5432C18.9982 34.578 19.033 34.6127 19.0688 34.6485C19.1822 34.7619 19.2955 34.8756 19.4087 34.9893C19.4879 35.0686 19.567 35.1478 19.6462 35.227C19.8535 35.4346 20.0607 35.6423 20.2679 35.85C20.4797 36.0624 20.6916 36.2746 20.9035 36.4868C21.3187 36.9025 21.7336 37.3184 22.1484 37.7344C21.0884 38.8504 18.6883 39.1343 17.2266 39.2109C17.0806 39.2135 16.9351 39.2127 16.7891 39.2109C16.8246 37.7046 17.0605 35.002 18.2109 33.8516Z" fill="#5956E9"/>
<path d="M33.6274 21.6428C34.0361 21.8854 34.3304 22.2313 34.4883 22.6866C34.5785 23.2238 34.5572 23.7182 34.2803 24.1962C34.1257 24.412 33.9631 24.5718 33.7426 24.719C33.708 24.7426 33.6735 24.7662 33.6379 24.7905C33.2073 25.0308 32.6172 25.0099 32.1487 24.8958C31.6831 24.7199 31.4086 24.4412 31.1723 24.008C30.9653 23.5154 30.9478 23.0608 31.1152 22.5545C31.3151 22.0904 31.7013 21.7253 32.1667 21.5324C32.6389 21.4099 33.1863 21.43 33.6274 21.6428Z" fill="#5956E9"/>
</svg>
